<svg width="121" height="120" viewBox="0 0 121 120" fill="none" xmlns="http://www.w3.org/2000/svg">
<path d="M43.242 66.8445C43.4842 68.1863 44.7829 69.281 46.5212 69.6093L66.3644 73.3585C67.2937 73.5342 67.3044 74.5303 66.375 74.706C61.1089 75.701 51.3457 77.5455 46.5104 78.4592C44.772 78.7877 43.4845 79.8807 43.2424 81.2223L37.9819 110.376C37.8372 111.178 36.303 111.178 36.1582 110.376L30.8977 81.2228C30.6555 79.881 29.3679 78.7878 27.6292 78.4593C22.7935 77.5462 13.0302 75.7017 7.76371 74.7067C6.83438 74.5312 6.83438 73.5368 7.76371 73.3613C13.0305 72.3663 22.7944 70.5215 27.6299 69.6075C29.368 69.279 29.5832 67.7043 29.8254 66.3627L34.2467 42.8758C34.3914 42.074 37.8364 36.8858 37.981 37.6878C39.6185 46.7617 42.9182 65.0485 43.242 66.8445Z" fill="#FCEA2B"/>
<path d="M38.1499 110.376L40.7862 84.704C36.1204 77.0065 34.3372 69.0203 32.1649 63.3333L29.9059 66.8668C29.6811 68.2078 28.4861 69.3002 26.8721 69.6287C22.3826 70.542 13.3171 72.386 8.4274 73.3807C7.56457 73.5562 7.56457 74.5498 8.4274 74.7253C13.3171 75.7198 22.3819 77.5633 26.8714 78.476C28.4856 78.8043 31.3479 79.8968 31.5727 81.238L36.4569 110.376C36.5912 111.178 38.0157 111.178 38.1499 110.376Z" fill="#F1B31C"/>
<path d="M78.1934 32.1747C78.3682 33.1438 79.3062 33.9343 80.5617 34.1715L94.8929 36.8792C95.5641 37.006 95.5717 37.7255 94.9006 37.8523C91.0972 38.571 84.0461 39.903 80.5537 40.5628C79.2982 40.8 78.3684 41.5895 78.1936 42.5585L74.3944 63.6142C74.2899 64.1933 73.1819 64.1933 73.0774 63.6142L69.2782 42.5588C69.1034 41.5897 68.1734 40.8002 66.9177 40.563C63.4252 39.9035 56.3739 38.5713 52.5704 37.8527C51.8992 37.7258 51.8992 37.0078 52.5704 36.881C56.3742 36.1623 63.4259 34.83 66.9181 34.1698C68.1734 33.9327 68.3289 32.7953 68.5037 31.8263L71.4922 14.8637C71.5967 14.2845 74.2896 10.5375 74.3939 11.1168C75.5764 17.6703 77.9594 30.8775 78.1934 32.1747Z" fill="#FCEA2B"/>
<path d="M74.9787 63.6144L76.4197 45.0732C73.0499 39.514 70.5584 33.746 68.9895 29.6389L68.5617 32.1909C68.3994 33.1594 67.5362 33.9482 66.3705 34.1855C63.1282 34.8452 56.5809 36.1769 53.0494 36.8954C52.4262 37.022 52.4262 37.7397 53.0494 37.8665C56.5809 38.5849 63.1275 39.9162 66.37 40.5754C67.5359 40.8125 70.066 41.6015 70.2284 42.5702L73.7557 63.6145C73.8529 64.1934 74.8817 64.1934 74.9787 63.6144Z" fill="#F1B31C"/>
<path d="M95.204 81.5597C95.3477 82.3325 96.1185 82.9628 97.1502 83.152L108.927 85.3112C109.479 85.4123 109.485 85.986 108.934 86.0872C105.808 86.6602 100.014 87.7225 97.1437 88.2487C96.112 88.4378 95.3479 89.0673 95.2042 89.84L92.082 106.63C91.9962 107.092 91.0857 107.092 90.9997 106.63L87.8775 89.8403C87.7339 89.0675 86.9695 88.438 85.9377 88.2488C83.0677 87.7228 77.273 86.6607 74.1472 86.0877C73.5957 85.9865 73.5957 85.414 74.1472 85.3128C77.273 84.7398 83.068 83.6773 85.938 83.1508C86.9697 82.9617 87.0974 82.0547 87.241 81.282L89.697 67.7555C89.7829 67.2937 91.9959 64.3057 92.0817 64.7677C93.0534 69.9937 95.0117 80.5252 95.204 81.5597Z" fill="#FCEA2B"/>
<path d="M92.4525 106.63L94.2089 91.8452C91.5217 87.4122 89.5349 82.8127 88.2839 79.5375L87.9427 81.5725C87.8132 82.3448 87.125 82.9738 86.1954 83.163C83.6099 83.689 78.3889 84.751 75.5727 85.3238C75.0757 85.4248 75.0757 85.9972 75.5727 86.0982C78.3887 86.671 83.6094 87.7327 86.1949 88.2583C87.1245 88.4473 87.813 89.0767 87.9425 89.849L91.4772 106.63C91.5549 107.092 92.3752 107.092 92.4525 106.63Z" fill="#F1B31C"/>
<path d="M33.7334 53.3333L37.303 34.7325L38.469 41.693C38.656 42.8061 42.352 64.8688 42.352 64.8688C42.7879 67.4695 45.0912 69.5611 48.2195 70.1978L67.0667 74.033L48.2065 77.8706C45.0859 78.5056 42.7877 80.5966 42.352 83.1978L37.3037 113.333L32.2554 83.199C31.8195 80.5978 29.5212 78.5068 26.4002 77.8716L7.53937 74.0342L26.4012 70.1956C29.5212 69.5603 31.6312 65.934 32.0667 63.3333" stroke="black" stroke-width="2" stroke-miterlimit="10" stroke-linecap="round" stroke-linejoin="round"/>
<path d="M71.326 22.4165L73.9042 8.9825L74.7462 14.0095C74.8812 14.8135 77.5507 30.7477 77.5507 30.7477C77.8655 32.6258 79.5289 34.1367 81.7884 34.5963L95.4 37.3663L81.7787 40.138C79.5249 40.5967 77.865 42.1067 77.5505 43.9853L73.9045 65.7498L70.2585 43.9862C69.9437 42.1075 68.2839 40.5973 66.0299 40.1387L52.4082 37.3672L66.0307 34.5948C68.284 34.136 69.8079 31.517 70.1224 29.6388" stroke="black" stroke-width="2" stroke-miterlimit="10" stroke-linecap="round" stroke-linejoin="round"/>
<path d="M90.147 73.7783L92.2028 63.0658L92.8743 67.0745C92.982 67.7157 95.1107 80.4218 95.1107 80.4218C95.3617 81.9195 96.6882 83.1243 98.4898 83.4908L109.344 85.6997L98.4823 87.9098C96.6852 88.2755 95.3615 89.4797 95.1107 90.9778L92.2032 108.333L89.2957 90.9785C89.0447 89.4805 87.721 88.2762 85.9237 87.9103L75.0613 85.7003L85.9242 83.4897C87.721 83.1238 88.9362 81.0353 89.187 79.5377" stroke="black" stroke-width="2" stroke-miterlimit="10" stroke-linecap="round" stroke-linejoin="round"/>
</svg>
