<svg width="141" height="140" viewBox="0 0 141 140" fill="none" xmlns="http://www.w3.org/2000/svg">
<g clip-path="url(#clip0_68_169)">
<path d="M89.3237 83.191L112.294 48.8245L112.042 45.2886L106.968 42.7463L101.339 47.2708L86.0591 66.9833L82.2014 68.2449L80.5746 63.5098L92.5109 35.7263L91.0616 32.1084L88.3739 30.6867L83.6583 33.1982L69.63 65.8649L66.4815 64.0471C68.117 55.4246 60.1681 56.7343 56.9621 60.3308C53.1783 54.3324 51.3609 56.1209 47.2223 58.3753L41.2094 68.163C39.5099 71.8576 38.5225 74.297 37.3456 77.3378L35.6858 85.0384L38.1565 97.8212L46.522 107.028L56.5106 111.291L68.2938 110.552L76.3781 106.445C82.5937 99.0749 86.3729 92.1366 89.3198 83.1992L89.3237 83.191Z" fill="#FADCBC" stroke="#FADCBC" stroke-width="2"/>
<path d="M94.2491 75.7406L112.234 49.7088C115.341 43.3528 107.455 38.7081 103.353 44.539L88.0318 64.1948C86.1133 66.6647 83.6415 68.1649 82.5481 67.5336C81.4546 66.9023 81.5452 64.024 82.7504 61.1374L92.3307 38.1997C95.0737 31.118 86.2432 27.5893 83.6649 33.1983L71.8258 60.8901" stroke="black" stroke-width="4" stroke-linecap="round" stroke-linejoin="round"/>
<path d="M82.0208 99.7927C75.0026 111.949 60.145 114.876 47.9916 107.86" stroke="black" stroke-width="4" stroke-linecap="round" stroke-linejoin="round"/>
<path d="M71.8262 89.3263L73.4848 86.4536C74.2668 85.0991 72.846 82.4728 70.3243 80.6212L69.1158 79.7314C66.5949 77.8786 65.5359 74.6255 66.903 72.2577C68.2701 69.8898 71.4896 69.432 74.1986 70.996L86.5121 78.1052C89.2542 79.6148 90.3475 82.999 89.0069 85.8271L81.8465 100.098" stroke="black" stroke-width="4" stroke-linecap="round" stroke-linejoin="round"/>
<path d="M62.5265 88.9974C65.5858 88.3338 68.7662 88.4954 71.7429 89.4621" stroke="black" stroke-width="4" stroke-linecap="round" stroke-linejoin="round"/>
<path d="M37.3643 77.3267C32.6566 88.7282 37.2292 101.843 47.9916 107.86C59.8951 114.732 74.8782 112.164 82.0208 99.7927" stroke="black" stroke-width="4" stroke-miterlimit="10" stroke-linecap="round"/>
<path d="M55.3348 83.7945C54.4404 85.3435 52.7882 86.2974 51.0007 86.2964C49.2132 86.2954 47.5603 85.3424 46.6664 83.794C45.7724 82.2455 45.7724 80.3374 46.6661 78.7896L58.0124 59.1372C58.9067 57.5882 60.5589 56.6343 62.3464 56.6353C64.134 56.6362 65.7869 57.5892 66.6808 59.1377C67.5747 60.6862 67.5747 62.5943 66.6804 64.1433L55.3348 83.7945Z" stroke="black" stroke-width="4" stroke-linecap="round" stroke-linejoin="round"/>
<path d="M50.0643 72.9037C49.1671 74.4577 47.5127 75.4153 45.7231 75.418C43.9334 75.4207 42.2812 74.4665 41.3887 72.9155C40.4962 71.3646 40.4984 69.4528 41.3955 67.8988L47.0381 58.1256C47.9353 56.5716 49.5896 55.6141 51.3793 55.6114C53.1687 55.6088 54.8212 56.5629 55.7137 58.1138C56.6062 59.6647 56.604 61.5765 55.7068 63.1305L50.0643 72.9037Z" stroke="black" stroke-width="4" stroke-linecap="round" stroke-linejoin="round"/>
</g>
<defs>
<clipPath id="clip0_68_169">
<rect width="102.373" height="102.373" fill="white" transform="translate(51.5864) rotate(30)"/>
</clipPath>
</defs>
</svg>
