<svg width="128" height="129" viewBox="0 0 128 129" fill="none" xmlns="http://www.w3.org/2000/svg">
<circle cx="64.9303" cy="69.101" r="44" transform="rotate(26.3253 64.9303 69.101)" fill="#2E2E2E"/>
<circle cx="63.0153" cy="61.1854" r="44" transform="rotate(26.3253 63.0153 61.1854)" fill="white"/>
<path d="M50.7091 86.0574C64.9406 93.0989 82.1857 87.2702 89.2271 73.0388C96.2686 58.8073 90.4399 41.5622 76.2085 34.5207C61.977 27.4793 44.7319 33.3079 37.6904 47.5394C30.649 61.7709 36.4776 79.016 50.7091 86.0574Z" fill="#FCEA2B"/>
<path d="M63.1047 76.8763C61.1433 77.6741 58.5355 77.5148 55.4749 76.0004C52.4373 74.4975 50.7212 72.5303 50.1438 70.4976" stroke="black" stroke-width="2" stroke-miterlimit="10" stroke-linecap="round" stroke-linejoin="round"/>
<path d="M51.6523 42.1767C53.2279 41.0238 55.1725 40.4959 57.1141 40.6952C59.0766 40.6897 60.9686 41.4189 62.4229 42.7349" stroke="black" stroke-width="2" stroke-miterlimit="10" stroke-linecap="round" stroke-linejoin="round"/>
<path d="M84.8267 58.5908C84.5911 54.6077 81.7563 51.2561 77.8672 50.3629" stroke="black" stroke-width="2" stroke-miterlimit="10" stroke-linecap="round" stroke-linejoin="round"/>
<path d="M50.4094 51.3852C50.4094 51.3852 56.0175 51.1343 59.3723 55.8199" stroke="black" stroke-width="2" stroke-miterlimit="10" stroke-linecap="round" stroke-linejoin="round"/>
<path d="M69.7357 60.9475C69.7357 60.9475 75.3438 60.6966 78.6986 65.3821" stroke="black" stroke-width="2" stroke-miterlimit="10" stroke-linecap="round" stroke-linejoin="round"/>
<path d="M50.709 86.0576C64.9406 93.099 82.1858 87.2704 89.2272 73.0388C96.2687 58.8073 90.4401 41.5621 76.2085 34.5206C61.977 27.4791 44.7318 33.3078 37.6903 47.5393C30.6488 61.7709 36.4775 79.0161 50.709 86.0576Z" stroke="black" stroke-width="2" stroke-miterlimit="10" stroke-linecap="round" stroke-linejoin="round"/>
</svg>
