<svg width="117" height="116" viewBox="0 0 117 116" fill="none" xmlns="http://www.w3.org/2000/svg">
<path d="M58.4 33.8029V82.1971" stroke="black" stroke-width="4" stroke-linecap="round" stroke-linejoin="round"/>
<path d="M82.5972 58H34.2029" stroke="black" stroke-width="4" stroke-linecap="round" stroke-linejoin="round"/>
<path d="M75.51 40.89L41.29 75.11" stroke="black" stroke-width="4" stroke-linecap="round" stroke-linejoin="round"/>
<path d="M75.51 75.11L41.29 40.89" stroke="black" stroke-width="4" stroke-linecap="round" stroke-linejoin="round"/>
<path d="M107.067 108.211H29.7334C29.5184 108.224 29.3031 108.191 29.1018 108.114C28.9004 108.038 28.7176 107.92 28.5653 107.768C28.413 107.615 28.2948 107.432 28.2184 107.231C28.1421 107.03 28.1093 106.814 28.1222 106.6V29.2662C28.1093 29.0512 28.1421 28.8359 28.2184 28.6346C28.2948 28.4332 28.413 28.2504 28.5653 28.0981C28.7176 27.9458 28.9004 27.8276 29.1018 27.7512C29.3031 27.6749 29.5184 27.6421 29.7334 27.655H107.067C107.282 27.6421 107.497 27.6749 107.698 27.7512C107.9 27.8276 108.082 27.9458 108.235 28.0981C108.387 28.2504 108.505 28.4332 108.582 28.6346C108.658 28.8359 108.691 29.0512 108.678 29.2662V106.6C108.691 106.814 108.658 107.03 108.582 107.231C108.505 107.432 108.387 107.615 108.235 107.768C108.082 107.92 107.9 108.038 107.698 108.114C107.497 108.191 107.282 108.224 107.067 108.211Z" fill="#2E2E2E"/>
<path d="M97.0667 98.2106H19.7334C19.5184 98.2236 19.3031 98.1908 19.1018 98.1144C18.9004 98.038 18.7176 97.9198 18.5653 97.7675C18.413 97.6153 18.2948 97.4324 18.2184 97.2311C18.1421 97.0297 18.1093 96.8145 18.1222 96.5995V19.2662C18.1093 19.0512 18.1421 18.8359 18.2184 18.6346C18.2948 18.4332 18.413 18.2504 18.5653 18.0981C18.7176 17.9458 18.9004 17.8276 19.1018 17.7512C19.3031 17.6749 19.5184 17.6421 19.7334 17.655H97.0667C97.2816 17.6421 97.4969 17.6749 97.6982 17.7512C97.8996 17.8276 98.0824 17.9458 98.2347 18.0981C98.387 18.2504 98.5052 18.4332 98.5816 18.6346C98.658 18.8359 98.6908 19.0512 98.6778 19.2662V96.5995C98.6908 96.8145 98.658 97.0297 98.5816 97.2311C98.5052 97.4324 98.387 97.6153 98.2347 97.7675C98.0824 97.9198 97.8996 98.038 97.6982 98.1144C97.4969 98.1908 97.2816 98.2236 97.0667 98.2106Z" fill="#5C9E31"/>
<path d="M58.4 33.7357V82.13" stroke="white" stroke-width="4" stroke-linecap="round" stroke-linejoin="round"/>
<path d="M82.5972 57.9328H34.2029" stroke="white" stroke-width="4" stroke-linecap="round" stroke-linejoin="round"/>
<path d="M75.51 40.8228L41.29 75.0428" stroke="white" stroke-width="4" stroke-linecap="round" stroke-linejoin="round"/>
<path d="M75.51 75.0428L41.29 40.8228" stroke="white" stroke-width="4" stroke-linecap="round" stroke-linejoin="round"/>
<path d="M97.0667 98.2778H19.7334C19.5184 98.2907 19.3031 98.258 19.1018 98.1816C18.9004 98.1052 18.7176 97.987 18.5653 97.8347C18.413 97.6824 18.2948 97.4996 18.2184 97.2982C18.1421 97.0969 18.1093 96.8816 18.1222 96.6667V19.3333C18.1093 19.1184 18.1421 18.9031 18.2184 18.7018C18.2948 18.5004 18.413 18.3176 18.5653 18.1653C18.7176 18.013 18.9004 17.8948 19.1018 17.8184C19.3031 17.742 19.5184 17.7093 19.7334 17.7222H97.0667C97.2816 17.7093 97.4969 17.742 97.6982 17.8184C97.8996 17.8948 98.0824 18.013 98.2347 18.1653C98.387 18.3176 98.5052 18.5004 98.5816 18.7018C98.658 18.9031 98.6908 19.1184 98.6778 19.3333V96.6667C98.6908 96.8816 98.658 97.0969 98.5816 97.2982C98.5052 97.4996 98.387 97.6824 98.2347 97.8347C98.0824 97.987 97.8996 98.1052 97.6982 98.1816C97.4969 98.258 97.2816 98.2907 97.0667 98.2778V98.2778Z" stroke="black" stroke-width="2" stroke-linecap="round" stroke-linejoin="round"/>
</svg>
