<svg width="117" height="85" viewBox="0 0 117 85" fill="none" xmlns="http://www.w3.org/2000/svg">
<path d="M54.6981 58.4171C54.2286 58.7646 53.6299 58.9356 53.0096 58.8519L36.0803 56.6416L33.1718 73.4691C32.959 74.7048 31.8111 75.5475 30.5686 75.3867L11.4186 72.8875C10.1398 72.7203 9.23353 71.547 9.39929 70.2676C9.56504 68.9882 10.7367 68.0826 12.0155 68.2498L28.9406 70.4625L31.8491 53.635C32.0619 52.3994 33.2098 51.5566 34.4523 51.7175L51.3898 53.9231L54.2982 37.0956C54.511 35.8599 55.659 35.0172 56.9015 35.178L73.8307 37.3884L76.7392 20.5609C76.952 19.3252 78.0999 18.4825 79.3424 18.6433L96.2757 20.8513L99.1883 4.02147C99.4073 2.74946 100.62 1.89647 101.892 2.117C103.163 2.33752 104.017 3.55201 103.798 4.82402L100.503 23.8603C100.29 25.0959 99.1421 25.9387 97.8996 25.7778L80.9663 23.5698L78.0578 40.3973C77.845 41.633 76.6971 42.4758 75.4546 42.3149L58.5253 40.1045L55.6169 56.932C55.5064 57.5522 55.1676 58.0696 54.6981 58.4171Z" fill="black" stroke="black" stroke-width="2" stroke-miterlimit="10" stroke-linecap="round" stroke-linejoin="round"/>
<path d="M53.1722 57.6617C52.7027 58.0092 52.1041 58.1802 51.4837 58.0966L34.5544 55.8862L31.646 72.7137C31.4332 73.9494 30.2852 74.7922 29.0427 74.6313L9.89269 72.1321C8.61388 71.9649 7.70766 70.7916 7.87341 69.5122C8.03917 68.2328 9.21079 67.3273 10.4896 67.4945L27.4148 69.7072L30.3232 52.8797C30.536 51.644 31.684 50.8012 32.9265 50.9621L49.8639 53.1677L52.7724 36.3402C52.9852 35.1046 54.1331 34.2618 55.3756 34.4227L72.3048 36.633L75.2133 19.8055C75.4261 18.5698 76.574 17.7271 77.8165 17.888L94.7499 20.0959L97.6624 3.26609C97.8815 1.99408 99.0943 1.14109 100.366 1.36162C101.637 1.58214 102.491 2.79663 102.272 4.06864L98.977 23.1049C98.7642 24.3406 97.6162 25.1833 96.3737 25.0224L79.4404 22.8145L76.5319 39.642C76.3191 40.8776 75.1712 41.7204 73.9287 41.5595L56.9995 39.3492L54.091 56.1767C53.9805 56.7969 53.6418 57.3143 53.1722 57.6617Z" fill="#3BAFE2" stroke="#2E2E2E" stroke-width="2" stroke-miterlimit="10" stroke-linecap="round" stroke-linejoin="round"/>
</svg>
