<svg width="113" height="112" viewBox="0 0 113 112" fill="none" xmlns="http://www.w3.org/2000/svg">
<path d="M54.5173 2.09538C54.7914 -0.263465 58.2164 -0.263472 58.4905 2.09538L61.5322 28.27C61.7459 30.1084 64.1271 30.6953 65.1707 29.1668L80.0279 7.40387C81.3669 5.4426 84.3996 7.03428 83.5461 9.25033L74.0754 33.8403C73.4102 35.5675 75.246 37.1938 76.8803 36.3253L100.149 23.9597C102.247 22.8453 104.192 25.664 102.407 27.2296L82.5932 44.6018C81.2015 45.8219 82.0712 48.1151 83.922 48.1056L110.272 47.9701C112.647 47.9579 113.06 51.3579 110.751 51.9144L85.1342 58.0889C83.3349 58.5226 83.0393 60.9572 84.6825 61.8089L108.078 73.9346C110.186 75.0274 108.971 78.2298 106.669 77.6497L81.1164 71.2121C79.3216 70.7599 77.9285 72.7783 78.9876 74.2961L94.0679 95.9051C95.4269 97.8525 92.8632 100.124 91.0938 98.5398L71.4601 80.9649C70.0811 79.7305 67.9095 80.8702 68.142 82.7063L71.4527 108.848C71.751 111.204 68.4255 112.024 67.5949 109.799L58.3776 85.1131C57.7302 83.3792 55.2776 83.3792 54.6302 85.1131L45.4129 109.799C44.5823 112.024 41.2568 111.204 41.5551 108.848L44.8658 82.7063C45.0983 80.8702 42.9267 79.7305 41.5477 80.9649L21.914 98.5398C20.1446 100.124 17.5809 97.8525 18.9399 95.9051L34.0202 74.2961C35.0794 72.7783 33.6862 70.7599 31.8915 71.2121L6.33917 77.6497C4.03641 78.2298 2.82187 75.0274 4.93023 73.9346L28.3253 61.8089C29.9685 60.9572 29.6729 58.5226 27.8736 58.0889L2.2565 51.9144C-0.0521126 51.3579 0.360723 47.9579 2.73541 47.9701L29.0858 48.1056C30.9366 48.1151 31.8063 45.8219 30.4146 44.6018L10.6012 27.2296C8.81567 25.664 10.7613 22.8453 12.8583 23.9597L36.1275 36.3253C37.7618 37.1938 39.5976 35.5675 38.9324 33.8403L29.4617 9.25034C28.6083 7.03429 31.641 5.4426 32.9799 7.40386L47.8371 29.1668C48.8807 30.6953 51.2619 30.1084 51.4756 28.27L54.5173 2.09538Z" fill="#84CEC5"/>
</svg>
