<svg width="194" height="104" viewBox="0 0 194 104" fill="none" xmlns="http://www.w3.org/2000/svg">
<path d="M27.1483 1.80369C31.331 3.55178 32.7773 7.7451 33.2023 12.7528C33.4156 15.168 33.4693 17.6603 34.202 19.8887C35.0755 22.5142 37.2192 23.4512 39.8053 22.41C42.4711 21.3302 44.8416 19.3986 47.3221 17.7989C52.8378 14.2512 57.933 14.9809 61.5219 18.9407C63.8786 21.5552 64.1667 25.5062 64.557 29.3276C64.8067 31.7092 64.5608 34.3143 66.1548 36.1104C67.6034 37.7362 69.3744 38.1154 71.4513 36.9353C73.6178 35.6958 75.7328 34.3048 77.831 32.9058C86.0712 27.4159 93.9148 30.8434 95.2465 40.5778C95.5483 42.806 95.7367 45.0568 96.0384 47.2849C96.7376 52.3205 99.6769 53.6589 104.044 50.8908C106.462 49.3376 108.793 47.4892 111.277 46.2726C118.816 42.6132 126.109 46.7722 126.609 56.8765C126.704 58.8034 126.832 60.7463 127.191 62.5942C128.038 67.0129 130.856 68.2176 134.742 65.8582C136.958 64.5148 139.091 62.9544 141.307 61.611C148.721 57.1296 155.985 60.741 157.35 69.3209C157.836 72.3739 157.654 75.6702 158.607 78.5621C159.501 81.2738 161.629 82.3305 164.302 81.2795C166.825 80.2848 169.114 78.569 171.364 76.9365C178.862 71.4521 188.168 75.0874 188.719 85.6482C188.815 87.3979 189.139 89.1022 189.253 90.8599C189.411 93.1731 190.163 94.9272 191.854 96.0827C193.462 97.1986 194.149 98.8714 192.916 101.264C191.82 103.366 190.048 103.901 187.91 102.865C184.077 101.028 183.218 96.8076 182.546 92.4969C182.237 90.545 182.254 88.4676 181.971 86.5029C181.348 82.0882 178.83 80.7708 174.975 82.8906C172.874 84.0341 170.801 85.2925 168.797 86.7103C160.822 92.3766 152.289 88.8011 151.483 78.1709C151.297 75.7428 151.113 73.2653 150.556 70.9677C149.611 67.0618 147.59 66.3863 143.938 68.1191C141.377 69.3247 139.164 71.3563 136.681 72.7006C128.368 77.2151 121.609 73.6644 120.476 64.0747C120.186 61.6485 119.982 59.2125 119.586 56.8378C118.906 52.8034 116.703 51.5584 113.134 53.3308C111.199 54.2982 109.259 55.4922 107.424 56.8121C98.1092 63.4471 90.0288 59.348 89.1152 47.9038C88.9709 46.0808 88.7932 44.2419 88.5257 42.4623C87.8122 37.6743 85.165 36.4994 80.9997 39.0577C77.8442 40.9997 74.87 43.3834 71.4637 44.5965C66.0428 46.5104 60.7531 43.9339 59.05 38.373C58.1503 35.4553 57.9633 32.2895 57.6531 29.1673C56.8642 21.368 53.0164 22.1689 48.2191 25.3695C46.4892 26.5102 44.7844 27.8153 42.996 28.7758C34.8121 33.1478 27.9418 29.1376 27.0157 19.544C26.7648 17.0347 26.7868 14.4255 26.113 12.0724C25.0314 8.28037 22.9883 7.391 19.4354 9.34859C16.5939 10.9303 13.907 12.9666 11.0545 14.4414C7.86301 16.112 4.66639 16.534 1.7541 14.8777C0.218972 13.9995 0.0632562 12.3745 0.544416 10.6182C1.07062 8.6797 2.72682 7.17356 4.08478 7.68824C8.14882 9.25307 11.3675 6.22192 14.8104 3.93256C18.8975 1.23559 22.9857 -0.290955 27.1483 1.80369Z" fill="white"/>
</svg>
