<svg width="141" height="97" viewBox="0 0 141 97" fill="none" xmlns="http://www.w3.org/2000/svg">
<path d="M42.9527 54.3714C42.2671 53.9438 41.7389 53.2557 41.521 52.4075L35.6725 29.3035L12.4511 34.3138C10.7494 34.6791 9.06206 33.6331 8.63248 31.9389L2.01974 5.79958C1.57395 4.0511 2.62832 2.26673 4.36591 1.816C6.1035 1.36526 7.87379 2.41145 8.31957 4.15993L14.1681 27.264L37.3895 22.2536C39.0912 21.8884 40.7785 22.9344 41.2081 24.6286L47.0607 47.741L70.2821 42.7306C71.9838 42.3654 73.6711 43.4114 74.1007 45.1055L79.9533 68.218L103.175 63.2076C104.876 62.8424 106.564 63.8884 106.993 65.5825L112.846 88.6949L136.074 83.6867C137.827 83.3111 139.551 84.4324 139.922 86.1974C140.293 87.9624 139.165 89.7006 137.409 90.0824L111.125 95.7364C109.423 96.1016 107.742 95.0578 107.312 93.3636L101.46 70.2512L78.2384 75.2615C76.5367 75.6268 74.8494 74.5808 74.4198 72.8866L68.5672 49.7742L45.3458 54.7845C44.4856 54.9744 43.6446 54.8011 42.9527 54.3714Z" fill="#DC5A48" stroke="black" stroke-width="2" stroke-miterlimit="10" stroke-linecap="round" stroke-linejoin="round"/>
</svg>
