<svg width="43" height="42" viewBox="0 0 43 42" fill="none" xmlns="http://www.w3.org/2000/svg">
<path d="M7.80155 16.4051L7.7998 35.0539L26.2678 35.0507L35.6535 28.0226C35.6493 27.9941 35.8016 25.7205 35.8016 25.7205L35.7998 16.3872L7.80155 16.4051Z" fill="white"/>
<path d="M7.47656 16.5038L35.7993 16.387L35.8011 7.0715C35.8011 7.0715 31.9883 6.48828 32.3107 6.48828H30.2359L30.2666 9.85528C31.2741 10.1214 31.521 11.656 31.521 11.6563C31.5078 12.9349 29.9586 13.132 29.9514 13.1306C28.8735 12.9097 28.4996 12.3823 28.5116 11.496C28.52 10.8729 28.5384 10.7204 28.9833 10.2838C29.2821 9.99102 29.353 9.92884 29.7479 9.82868L29.7316 6.48828H27.6669C27.8191 6.48828 15.6487 6.48828 15.9712 6.48828H13.835L13.8764 9.82868C14.8839 10.0948 15.2137 10.3262 15.2036 11.4146C15.1916 12.6938 13.6251 13.3286 13.6177 13.3286C12.3314 13.3161 11.8724 12.7232 11.8844 11.4369C11.8901 10.8137 12.3958 10.3497 12.8407 9.91309C13.1394 9.62031 13.2484 9.43359 13.6432 9.33343L13.5035 6.48828H11.3199C11.4448 6.48828 7.80107 7.0715 7.80107 7.0715L7.47656 16.5038Z" fill="#EA5A47"/>
<path d="M35.799 28.0225H25.9648C25.9648 28.0225 25.4404 31.5832 25.3984 31.3023V34.4671L26.267 35.0506L35.799 28.0225Z" fill="#D0CFCE"/>
<path d="M15.385 11.5951C15.3942 10.6286 14.6183 9.8376 13.6518 9.82832C12.6853 9.81904 11.8942 10.595 11.885 11.5615C11.8757 12.528 12.6517 13.319 13.6182 13.3283C14.5847 13.3376 15.3757 12.5616 15.385 11.5951Z" stroke="#2E2E2E" stroke-width="2" stroke-miterlimit="10" stroke-linecap="round" stroke-linejoin="round"/>
<path d="M15.9707 7.07129H27.6666" stroke="#2E2E2E" stroke-width="2" stroke-miterlimit="10" stroke-linecap="round" stroke-linejoin="round"/>
<path d="M32.3103 7.07129H35.8008V16.4046H7.80078V7.07129H11.3193" stroke="#2E2E2E" stroke-width="2" stroke-miterlimit="10" stroke-linecap="round" stroke-linejoin="round"/>
<path d="M13.6426 5.06836V11.0821" stroke="#2E2E2E" stroke-width="2" stroke-miterlimit="10" stroke-linecap="round" stroke-linejoin="round"/>
<path d="M31.719 11.5946C31.7282 10.6281 30.9523 9.83711 29.9858 9.82783C29.0193 9.81856 28.2282 10.5945 28.2189 11.561C28.2097 12.5275 28.9857 13.3186 29.9522 13.3278C30.9187 13.3371 31.7097 12.5611 31.719 11.5946Z" stroke="#2E2E2E" stroke-width="2" stroke-miterlimit="10" stroke-linecap="round" stroke-linejoin="round"/>
<path d="M29.9766 5.06836V11.0821" stroke="#2E2E2E" stroke-width="2" stroke-miterlimit="10" stroke-linecap="round" stroke-linejoin="round"/>
<path d="M20.8294 22.2204C21.1355 20.7245 22.459 19.5991 24.0455 19.5991C24.952 19.5991 25.7727 19.9666 26.3668 20.5607C27.291 21.4848 27.2056 23.0204 26.3385 23.9982L20.7627 30.2864H23.5394" stroke="#2E2E2E" stroke-width="2" stroke-miterlimit="10" stroke-linecap="round" stroke-linejoin="round"/>
<path d="M14.3789 21.8157L17.3376 19.5991V30.2864" stroke="#2E2E2E" stroke-width="2" stroke-miterlimit="10" stroke-linecap="round" stroke-linejoin="round"/>
<path d="M7.79883 16.3872V35.0539L26.2668 35.0507L35.7988 28.0226V16.3872" stroke="#2E2E2E" stroke-width="2" stroke-miterlimit="10" stroke-linecap="round" stroke-linejoin="round"/>
<path d="M35.6527 28.0225H25.9648V31.2187" stroke="#2E2E2E" stroke-width="2" stroke-miterlimit="10" stroke-linecap="round" stroke-linejoin="round"/>
</svg>
