<svg width="45" height="44" viewBox="0 0 45 44" fill="none" xmlns="http://www.w3.org/2000/svg">
<path d="M11.2451 31.014C9.2993 28.525 8.13574 25.3973 8.13574 22.0002C8.13574 13.9152 14.7174 7.3335 22.8024 7.3335C30.8874 7.3335 37.4691 13.9152 37.4691 22.0002C37.4691 30.0852 30.8874 36.6668 22.8024 36.6668C21.6077 36.6668 20.4466 36.5198 19.3337 36.2489C15.7166 35.3438 13.021 33.5961 11.2426 31.0135L11.2451 31.014Z" fill="white"/>
<path d="M15.1503 36.6487C16.8378 36.6487 18.2058 35.2807 18.2058 33.5932C18.2058 31.9056 16.8378 30.5376 15.1503 30.5376C13.4627 30.5376 12.0947 31.9056 12.0947 33.5932C12.0947 35.2807 13.4627 36.6487 15.1503 36.6487Z" fill="white"/>
<path d="M10.4566 39.9911C9.61283 39.9911 8.92882 39.3071 8.92882 38.4633C8.92882 37.6196 9.61283 36.9355 10.4566 36.9355C11.3004 36.9355 11.9844 37.6196 11.9844 38.4633C11.9844 39.3071 11.3004 39.9911 10.4566 39.9911Z" fill="white"/>
<path d="M20.0752 35.7866C20.9565 35.9613 21.8658 36.055 22.7977 36.055C30.5466 36.055 36.8533 29.7483 36.8533 21.9994C36.8533 14.2505 30.5466 7.94385 22.7977 7.94385C15.0489 7.94385 8.74219 14.2505 8.74219 21.9994C8.74219 25.0018 9.69063 27.7848 11.3009 30.0722" stroke="#2E2E2E" stroke-width="2" stroke-miterlimit="10" stroke-linecap="round"/>
<path d="M17.1724 23.2223C17.8474 23.2223 18.3946 22.6751 18.3946 22.0001C18.3946 21.325 17.8474 20.7778 17.1724 20.7778C16.4974 20.7778 15.9502 21.325 15.9502 22.0001C15.9502 22.6751 16.4974 23.2223 17.1724 23.2223Z" fill="#2E2E2E"/>
<path d="M22.8003 23.2223C23.4754 23.2223 24.0226 22.6751 24.0226 22.0001C24.0226 21.325 23.4754 20.7778 22.8003 20.7778C22.1253 20.7778 21.5781 21.325 21.5781 22.0001C21.5781 22.6751 22.1253 23.2223 22.8003 23.2223Z" fill="#2E2E2E"/>
<path d="M28.4293 23.2223C29.1043 23.2223 29.6515 22.6751 29.6515 22.0001C29.6515 21.325 29.1043 20.7778 28.4293 20.7778C27.7542 20.7778 27.207 21.325 27.207 22.0001C27.207 22.6751 27.7542 23.2223 28.4293 23.2223Z" fill="#2E2E2E"/>
<path d="M10.7337 39.9406C9.90415 40.0949 9.1066 39.5475 8.95227 38.718C8.79795 37.8885 9.34529 37.091 10.1748 36.9367C11.0043 36.7823 11.8019 37.3297 11.9562 38.1592C12.1105 38.9887 11.5632 39.7862 10.7337 39.9406Z" stroke="#2E2E2E" stroke-width="2" stroke-miterlimit="10"/>
<path d="M15.9852 36.2478C14.3325 36.5553 12.7435 35.4647 12.436 33.812C12.1285 32.1593 13.219 30.5703 14.8718 30.2628C16.5245 29.9553 18.1135 31.0458 18.421 32.6986C18.7285 34.3513 17.6379 35.9403 15.9852 36.2478Z" stroke="#2E2E2E" stroke-width="2" stroke-miterlimit="10"/>
</svg>
