<svg width="180" height="99" viewBox="0 0 180 99" fill="none" xmlns="http://www.w3.org/2000/svg">
<path d="M58.1717 58.7565C57.2855 58.3522 56.5538 57.6184 56.1687 56.6482L45.6402 30.1585L18.7302 39.5416C16.7561 40.2285 14.5888 39.2367 13.8186 37.2962L1.91525 7.33138C1.11703 5.3292 2.09781 3.05536 4.10681 2.26109C6.10899 1.46287 8.38284 2.44364 9.17711 4.45264L19.6988 30.9385L46.6127 21.5485C48.5869 20.8616 50.7541 21.8534 51.5243 23.7939L62.0529 50.2836L88.9668 40.8937C90.9409 40.2068 93.1081 41.1986 93.8784 43.139L104.407 69.6288L131.313 60.2525C133.287 59.5656 135.454 60.5574 136.225 62.4979L146.749 88.9944L173.67 79.6085C175.702 78.9004 177.931 79.9738 178.646 82.0096C179.354 84.0416 178.281 86.2709 176.245 86.9858L145.794 97.6055C143.82 98.2924 141.653 97.3006 140.883 95.3601L130.354 68.8704L103.433 78.2563C101.459 78.9433 99.2919 77.9514 98.5217 76.011L87.9931 49.5212L61.0792 58.9112C60.0986 59.2356 59.0579 59.1608 58.1717 58.7565Z" fill="white" stroke="#2E2E2E" stroke-width="2" stroke-miterlimit="10" stroke-linecap="round" stroke-linejoin="round"/>
</svg>
