<svg width="154" height="92" viewBox="0 0 154 92" fill="none" xmlns="http://www.w3.org/2000/svg">
<circle cx="46.4" cy="46" r="45" stroke="black" stroke-width="2"/>
<circle cx="75.4" cy="46" r="45" stroke="black" stroke-width="2"/>
<circle cx="107.4" cy="46" r="45" stroke="black" stroke-width="2"/>
<path d="M14.0602 51H10.6183V38.2529H19.2462C20.174 38.2529 20.9594 38.3488 21.6027 38.5405C22.2521 38.7323 22.7778 39.0044 23.1798 39.3569C23.588 39.7095 23.8818 40.1362 24.0612 40.6372C24.2467 41.132 24.3395 41.6855 24.3395 42.2979C24.3395 42.8359 24.2622 43.306 24.1075 43.708C23.9591 44.11 23.755 44.4564 23.4952 44.7471C23.2417 45.0316 22.9448 45.2728 22.6046 45.4707C22.2644 45.6686 21.9057 45.8325 21.5284 45.9624L25.7032 51H21.6769L17.8175 46.3057H14.0602V51ZM20.8605 42.2793C20.8605 42.0319 20.8265 41.8216 20.7584 41.6484C20.6966 41.4753 20.5852 41.3361 20.4244 41.231C20.2636 41.1196 20.0472 41.0392 19.775 40.9897C19.5091 40.9403 19.1751 40.9155 18.7731 40.9155H14.0602V43.6431H18.7731C19.1751 43.6431 19.5091 43.6183 19.775 43.5688C20.0472 43.5194 20.2636 43.4421 20.4244 43.3369C20.5852 43.2256 20.6966 43.0833 20.7584 42.9102C20.8265 42.737 20.8605 42.5267 20.8605 42.2793Z" fill="#2E2E2E"/>
<path d="M41.712 51V38.2529H54.6168V40.9712H45.2467V43.0771H54.1344V45.7954H45.2467V48.2817H54.7467V51H41.712Z" fill="#2E2E2E"/>
<path d="M78.6163 41.0269V51H75.1744V41.0269H69.7657V38.2529H84.0343V41.0269H78.6163Z" fill="#2E2E2E"/>
<path d="M103.06 51H99.6183V38.2529H108.246C109.174 38.2529 109.959 38.3488 110.603 38.5405C111.252 38.7323 111.778 39.0044 112.18 39.3569C112.588 39.7095 112.882 40.1362 113.061 40.6372C113.247 41.132 113.339 41.6855 113.339 42.2979C113.339 42.8359 113.262 43.306 113.108 43.708C112.959 44.11 112.755 44.4564 112.495 44.7471C112.242 45.0316 111.945 45.2728 111.605 45.4707C111.264 45.6686 110.906 45.8325 110.528 45.9624L114.703 51H110.677L106.818 46.3057H103.06V51ZM109.86 42.2793C109.86 42.0319 109.826 41.8216 109.758 41.6484C109.697 41.4753 109.585 41.3361 109.424 41.231C109.264 41.1196 109.047 41.0392 108.775 40.9897C108.509 40.9403 108.175 40.9155 107.773 40.9155H103.06V43.6431H107.773C108.175 43.6431 108.509 43.6183 108.775 43.5688C109.047 43.5194 109.264 43.4421 109.424 43.3369C109.585 43.2256 109.697 43.0833 109.758 42.9102C109.826 42.737 109.86 42.5267 109.86 42.2793Z" fill="#2E2E2E"/>
<path d="M146.074 44.6357C146.074 45.7305 145.873 46.6984 145.471 47.5396C145.069 48.3745 144.494 49.0734 143.746 49.6362C142.997 50.1991 142.088 50.6258 141.018 50.9165C139.954 51.201 138.758 51.3433 137.428 51.3433C136.098 51.3433 134.895 51.201 133.819 50.9165C132.749 50.6258 131.837 50.1991 131.082 49.6362C130.328 49.0734 129.746 48.3745 129.338 47.5396C128.93 46.6984 128.726 45.7305 128.726 44.6357C128.726 43.541 128.93 42.5762 129.338 41.7412C129.746 40.9001 130.328 40.1981 131.082 39.6353C131.837 39.0724 132.749 38.6488 133.819 38.3643C134.895 38.0736 136.098 37.9282 137.428 37.9282C138.758 37.9282 139.954 38.0736 141.018 38.3643C142.088 38.6488 142.997 39.0724 143.746 39.6353C144.494 40.1981 145.069 40.9001 145.471 41.7412C145.873 42.5762 146.074 43.541 146.074 44.6357ZM142.595 44.6357C142.595 44.1595 142.518 43.6864 142.363 43.2163C142.215 42.7401 141.946 42.3133 141.556 41.936C141.173 41.5588 140.647 41.2526 139.979 41.0176C139.311 40.7826 138.461 40.665 137.428 40.665C136.735 40.665 136.126 40.7207 135.6 40.832C135.075 40.9372 134.62 41.0856 134.236 41.2773C133.853 41.4691 133.531 41.6948 133.272 41.9546C133.012 42.2082 132.805 42.4834 132.65 42.7803C132.495 43.071 132.384 43.3771 132.316 43.6987C132.254 44.0142 132.223 44.3265 132.223 44.6357C132.223 44.9512 132.254 45.2697 132.316 45.5913C132.384 45.9129 132.495 46.2222 132.65 46.519C132.805 46.8097 133.012 47.0819 133.272 47.3354C133.531 47.589 133.853 47.8117 134.236 48.0034C134.62 48.189 135.075 48.3374 135.6 48.4487C136.126 48.5539 136.735 48.6064 137.428 48.6064C138.461 48.6064 139.311 48.4889 139.979 48.2539C140.647 48.0189 141.173 47.7127 141.556 47.3354C141.946 46.9582 142.215 46.5345 142.363 46.0645C142.518 45.5882 142.595 45.112 142.595 44.6357Z" fill="#2E2E2E"/>
</svg>
