<svg width="145" height="120" viewBox="0 0 145 120" fill="none" xmlns="http://www.w3.org/2000/svg">
<circle cx="60.4" cy="60" r="60" fill="#2E2E2E"/>
<circle cx="84.4" cy="60" r="58.5" fill="white" stroke="#2E2E2E" stroke-width="3"/>
<path d="M85.9 2V117.5" stroke="#2E2E2E" stroke-width="3"/>
<path d="M85.4 21H128.4" stroke="#2E2E2E" stroke-width="2"/>
<path d="M85.4 29H134.4" stroke="#2E2E2E" stroke-width="2"/>
<path d="M93.4 38H139.4" stroke="#2E2E2E" stroke-width="2"/>
<path d="M85.4 13H118.4" stroke="#2E2E2E" stroke-width="2"/>
<path d="M86.4 38H109.323C115.928 38 117.899 46.986 111.9 49.75V49.75C105.902 52.514 107.872 61.5 114.477 61.5H142.4" stroke="#2E2E2E" stroke-width="2"/>
<path d="M85.4 80H140.4" stroke="#2E2E2E" stroke-width="2"/>
<path d="M87.4 98H129.4" stroke="#2E2E2E" stroke-width="2"/>
<path d="M87.4 89H134.4" stroke="#2E2E2E" stroke-width="2"/>
<path d="M87.4 71H141.4" stroke="#2E2E2E" stroke-width="2"/>
<path d="M87.4 108H118.4" stroke="#2E2E2E" stroke-width="2"/>
<path d="M69.304 92.0712C69.444 91.4738 69.7334 91.0025 70.172 90.6572C70.6107 90.3025 71.1194 90.1252 71.698 90.1252C72.5474 90.1252 73.21 90.4098 73.686 90.9792C74.162 91.5392 74.4 92.3465 74.4 93.4012L74.4 98.0072L64.502 98.0072L64.502 93.5132C64.502 92.5052 64.7214 91.7258 65.16 91.1752C65.5987 90.6245 66.224 90.3492 67.036 90.3492C67.6334 90.3492 68.1327 90.5078 68.534 90.8252C68.926 91.1425 69.1827 91.5578 69.304 92.0712ZM68.548 95.6132L68.548 94.0452C68.548 93.2145 68.1934 92.7992 67.484 92.7992C66.7747 92.7992 66.42 93.2238 66.42 94.0732L66.42 95.6132L68.548 95.6132ZM72.454 93.9052C72.454 93.0185 72.09 92.5752 71.362 92.5752C71.0074 92.5752 70.732 92.6918 70.536 92.9252C70.3307 93.1585 70.228 93.4898 70.228 93.9192L70.228 95.6132L72.454 95.6132L72.454 93.9052ZM74.4 76.3587L70.662 78.5007L70.662 79.0467L74.4 79.0467L74.4 81.4407L64.502 81.4407L64.502 77.3527C64.502 76.5687 64.6374 75.906 64.908 75.3647C65.1787 74.8233 65.552 74.4173 66.028 74.1467C66.4947 73.876 67.0314 73.7407 67.638 73.7407C68.3567 73.7407 68.968 73.9413 69.472 74.3427C69.976 74.7347 70.3214 75.3087 70.508 76.0647L74.4 73.7127L74.4 76.3587ZM69.024 79.0467L69.024 77.5627C69.024 77.0867 68.9214 76.7367 68.716 76.5127C68.5014 76.2887 68.1887 76.1767 67.778 76.1767C67.386 76.1767 67.078 76.2933 66.854 76.5267C66.63 76.7507 66.518 77.096 66.518 77.5627L66.518 79.0467L69.024 79.0467ZM72.594 58.9883L72.594 62.6983L74.4 63.3143L74.4 65.8343L64.572 62.2083L64.572 59.4503L74.4 55.8243L74.4 58.3723L72.594 58.9883ZM70.774 59.6043L67.134 60.8363L70.774 62.0823L70.774 59.6043ZM74.4 38.6817L74.4 41.0757L68.324 45.0797L74.4 45.0797L74.4 47.4737L64.502 47.4737L64.502 45.0797L70.634 41.0757L64.502 41.0757L64.502 38.6817L74.4 38.6817ZM69.43 20.7044C70.4007 20.7044 71.264 20.9144 72.02 21.3344C72.7667 21.7451 73.35 22.3424 73.77 23.1264C74.19 23.9011 74.4 24.8158 74.4 25.8704L74.4 29.6084L64.502 29.6084L64.502 25.8704C64.502 24.8064 64.7074 23.8871 65.118 23.1124C65.5287 22.3378 66.1074 21.7451 66.854 21.3344C67.6007 20.9144 68.4594 20.7044 69.43 20.7044ZM72.258 26.0804C72.258 25.1471 72.0107 24.4238 71.516 23.9104C71.0214 23.3878 70.326 23.1264 69.43 23.1264C68.534 23.1264 67.8387 23.3878 67.344 23.9104C66.8494 24.4238 66.602 25.1471 66.602 26.0804L66.602 27.2144L72.258 27.2144L72.258 26.0804Z" fill="#2E2E2E"/>
<path d="M55.4 74.1399L55.4 76.5339L49.324 80.5379L55.4 80.5379L55.4 82.9319L45.502 82.9319L45.502 80.5379L51.634 76.5339L45.502 76.5339L45.502 74.1399L55.4 74.1399ZM47.406 62.6726L49.478 62.6726L49.478 59.3266L51.284 59.3266L51.284 62.6726L53.482 62.6726L53.482 58.9066L55.4 58.9066L55.4 65.0666L45.502 65.0666L45.502 58.9066L47.406 58.9066L47.406 62.6726ZM45.502 36.673L55.4 39.039L55.4 42.007L48.778 43.589L55.4 45.185L55.4 48.153L45.502 50.519L45.502 47.915L52.67 46.641L45.502 44.905L45.502 42.287L52.67 40.551L45.502 39.263L45.502 36.673Z" fill="#2E2E2E"/>
</svg>
