<svg width="107" height="106" viewBox="0 0 107 106" fill="none" xmlns="http://www.w3.org/2000/svg">
<rect x="0.400024" width="106" height="102" fill="#2E2E2E"/>
<rect x="54.4" y="13" width="39" height="38" fill="white"/>
<rect x="73.4" y="20" width="12.3158" height="12" rx="6" fill="#2E2E2E"/>
<path d="M14.4931 77.3105C14.6167 79.4885 15.097 81.2575 15.934 82.6175C16.7805 83.9681 18.0739 84.6433 19.8144 84.6433C20.4992 84.6433 21.1127 84.5245 21.6548 84.2867C22.2064 84.0394 22.6392 83.6685 22.953 83.1739C23.2764 82.6793 23.4381 82.0802 23.4381 81.3764C23.4381 80.6155 23.2574 79.9355 22.8959 79.3363C22.544 78.7276 22.0637 78.176 21.4551 77.6814C20.8559 77.1773 20.0522 76.5971 19.044 75.9409C17.8647 75.18 16.9279 74.519 16.2336 73.9579C15.5488 73.3967 14.9781 72.731 14.5216 71.9606C14.0746 71.1902 13.8511 70.2962 13.8511 69.2785C13.8511 68.0992 14.1507 67.1101 14.7499 66.3111C15.3491 65.5027 16.1432 64.9035 17.1324 64.5136C18.1215 64.1236 19.2105 63.9287 20.3993 63.9287C21.1031 63.9287 21.7118 63.981 22.2254 64.0856C22.7485 64.1902 23.1813 64.3234 23.5237 64.4851C23.8756 64.6372 24.256 64.8322 24.665 65.07C25.131 65.3458 25.4591 65.4837 25.6493 65.4837C25.8301 65.4837 25.968 65.3838 26.0631 65.1841C26.1582 64.9749 26.2343 64.6467 26.2913 64.1997H26.9618C26.8667 65.5027 26.8192 67.7235 26.8192 70.8621H26.1487C26.0821 69.8064 25.8443 68.803 25.4354 67.8519C25.0359 66.9008 24.47 66.1304 23.7377 65.5408C23.0148 64.9416 22.1636 64.642 21.184 64.642C20.5658 64.642 20.0094 64.7609 19.5148 64.9986C19.0298 65.2364 18.6493 65.5836 18.3735 66.0401C18.1072 66.4871 17.9741 67.0102 17.9741 67.6094C17.9741 68.5795 18.2642 69.3736 18.8443 69.9918C19.4245 70.6101 20.1806 71.2378 21.1127 71.875C22.0447 72.5027 22.6724 72.926 22.9958 73.1447C24.1371 73.9056 25.0406 74.5666 25.7064 75.1277C26.3722 75.6889 26.9143 76.3451 27.3328 77.0965C27.7512 77.8478 27.9605 78.7181 27.9605 79.7072C27.9605 80.9531 27.6371 82.0041 26.9904 82.8601C26.3436 83.716 25.4734 84.358 24.3796 84.786C23.2859 85.2045 22.0637 85.4137 20.7132 85.4137C19.6195 85.4137 18.7112 85.3139 17.9883 85.1141C17.275 84.9239 16.614 84.6624 16.0053 84.3295C15.5868 84.0537 15.2587 83.9158 15.0209 83.9158C14.8402 83.9158 14.7023 84.0204 14.6072 84.2296C14.5121 84.4293 14.436 84.7527 14.379 85.1997H13.7084C13.7845 83.9823 13.8226 81.3526 13.8226 77.3105H14.4931ZM30.0006 71.5041C30.0671 70.8573 30.1004 70.1155 30.1004 69.2785C30.1004 67.947 30.0291 66.2921 29.8864 64.3139C31.665 64.3709 34.6752 64.3995 38.917 64.3995C43.1589 64.3995 46.1595 64.3709 47.919 64.3139C47.7764 66.2921 47.7051 67.947 47.7051 69.2785C47.7051 70.1155 47.7383 70.8573 47.8049 71.5041H47.1344C46.811 69.8777 46.4163 68.5937 45.9503 67.6522C45.4843 66.7011 44.9231 66.0211 44.2669 65.6121C43.6201 65.1936 42.8307 64.9844 41.8987 64.9844H41.2281V81.676C41.2281 82.4844 41.309 83.074 41.4707 83.445C41.6419 83.8159 41.9367 84.0679 42.3552 84.2011C42.7832 84.3342 43.4489 84.4056 44.3525 84.4151V85C41.8987 84.9429 40.0488 84.9144 38.8029 84.9144C37.576 84.9144 35.7927 84.9429 33.453 85V84.4151C34.3661 84.4056 35.0318 84.3342 35.4503 84.2011C35.8783 84.0679 36.1731 83.8159 36.3348 83.445C36.4965 83.074 36.5773 82.4844 36.5773 81.676V64.9844H35.9354C34.9938 64.9844 34.1949 65.1889 33.5386 65.5978C32.8919 66.0068 32.3355 66.6868 31.8695 67.6379C31.4034 68.5795 31.004 69.8682 30.6711 71.5041H30.0006Z" fill="white"/>
</svg>
