<svg width="159" height="158" viewBox="0 0 159 158" fill="none" xmlns="http://www.w3.org/2000/svg">
<path d="M79.4 0L81.4949 61.7467L98.306 2.29559L85.5631 62.7494L116.113 9.04897L89.273 64.6965L131.787 19.8676L92.4091 67.4749L144.416 34.1229L94.7893 70.9231L153.266 50.9862L96.275 74.8407L157.824 69.4776L96.78 79L157.824 88.5224L96.275 83.1593L153.266 107.014L94.7893 87.0769L144.416 123.877L92.4091 90.5251L131.787 138.132L89.273 93.3035L116.113 148.951L85.5631 95.2506L98.306 155.704L81.4949 96.2533L79.4 158L77.3051 96.2533L60.4941 155.704L73.237 95.2506L42.6869 148.951L69.5271 93.3035L27.0133 138.132L66.3909 90.5251L14.3843 123.877L64.0108 87.0769L5.53374 107.014L62.5251 83.1593L0.976021 88.5224L62.02 79L0.976021 69.4776L62.5251 74.8407L5.53374 50.9862L64.0108 70.9231L14.3843 34.1229L66.3909 67.4749L27.0133 19.8676L69.5271 64.6965L42.6869 9.04897L73.237 62.7494L60.4941 2.29559L77.3051 61.7467L79.4 0Z" fill="#2E2E2E"/>
</svg>
