<svg width="179" height="103" viewBox="0 0 179 103" fill="none" xmlns="http://www.w3.org/2000/svg">
<path fill-rule="evenodd" clip-rule="evenodd" d="M90.7349 44L70.7573 76.8256C64.2682 87.488 71.9433 101.144 84.425 101.144L100.129 101.144C100.132 101.144 100.136 101.144 100.139 101.144C113.096 101.136 120.673 86.5323 113.213 75.9344L90.7349 44Z" fill="white"/>
<path d="M84.8678 101L149.864 101C162.36 101 170.033 87.3155 163.515 76.6539L130.942 23.3783C124.695 13.1609 109.85 13.176 103.623 23.4062L71.2 76.6818C64.7109 87.3442 72.386 101 84.8678 101Z" stroke="black" stroke-width="3"/>
<path d="M55.8075 101L127.572 101C140.535 101 148.117 86.3912 140.656 75.7906L102.096 21.0087C95.4537 11.5724 81.3104 12.0565 75.3291 21.9248L42.1247 76.7066C35.6617 87.3696 43.3387 101 55.8075 101Z" stroke="black" stroke-width="3"/>
<path d="M28.8075 100L100.572 100C113.535 100 121.117 85.3912 113.656 74.7906L75.0957 20.0087C68.4537 10.5724 54.3104 11.0564 48.3291 20.9247L15.1247 75.7066C8.66168 86.3696 16.3387 100 28.8075 100Z" stroke="black" stroke-width="3"/>
</svg>
