<svg width="84" height="84" viewBox="0 0 84 84" fill="none" xmlns="http://www.w3.org/2000/svg">
<path d="M24.186 72.0061L25.4734 73.3017L27.2155 72.7528L36.8195 69.7269L42.6064 75.5774L44.6723 77.666L46.8038 75.6444L54.3449 68.4919L55.2804 67.6046V66.3153V53.0591L68.2863 39.4687L68.3248 39.4285L68.3618 39.3868C72.5737 34.6449 80.7692 21.6447 80.2343 6.73362L80.137 4.02128L77.4285 3.84734C71.2805 3.45252 56.4699 5.07739 45.117 14.8275L45.0307 14.9016L44.9503 14.9821L31.3686 28.5638H17.7622H16.4918L15.6078 29.476L8.29985 37.0172L6.32685 39.0532L8.24816 41.138L14.3288 47.7361L11.2038 56.5252L10.571 58.305L11.9024 59.6449L24.186 72.0061Z" stroke="#2E2E2E" stroke-width="6"/>
<path d="M57.5801 9.9176C64.1246 6.73476 71.4301 5.2356 78.6722 5.16064C78.9778 12.4835 77.1961 19.8409 74.0651 26.4314C68.5644 20.9364 63.0924 15.4068 57.5801 9.9176V9.9176Z" fill="#E81224"/>
<path d="M44.7738 18.4742C48.5736 15.0031 52.8751 12.0221 57.5801 9.91748C63.0924 15.4067 68.5644 20.9363 74.0651 26.4313C72.0413 31.0038 69.1467 35.1784 65.8255 38.909C61.5241 43.3373 57.1246 47.6733 52.7482 52.0266C47.5588 57.1295 42.4501 62.3247 37.2838 67.4507C37.255 67.4161 37.1915 67.3469 37.1569 67.3065C30.3242 60.4854 23.5088 53.6469 16.6703 46.8315C16.6415 46.8026 16.5781 46.745 16.5492 46.7161C21.6867 41.5498 26.8646 36.4238 31.9906 31.2517C36.2459 26.9849 40.4897 22.7122 44.7738 18.4742V18.4742ZM49.6576 24.0211C47.8183 24.8399 46.3018 26.414 45.5926 28.3053C43.834 32.3645 46.3883 37.4559 50.6206 38.6264C55.366 40.2524 60.8668 36.1816 60.6592 31.1652C60.9532 25.7221 54.5241 21.5302 49.6576 24.0211V24.0211ZM40.1149 42.0168C35.8942 46.2606 31.6562 50.4871 27.4181 54.7193C26.732 55.2152 27.0145 56.1147 27.1644 56.7951C27.8506 57.0027 28.7674 57.2852 29.2748 56.5818C33.5128 52.3495 37.7451 48.1115 41.9831 43.8793C42.6519 43.3776 42.4444 42.4378 42.1791 41.7804C41.516 41.5613 40.605 41.3595 40.1149 42.0168V42.0168Z" fill="white"/>
<path d="M49.6576 24.0214C54.5241 21.5305 60.9532 25.7224 60.6592 31.1655C60.8667 36.1819 55.366 40.2527 50.6206 38.6267C46.3883 37.4562 43.834 32.3648 45.5926 28.3055C46.3018 26.4143 47.8183 24.8402 49.6576 24.0214ZM51.3125 26.1663C47.4838 27.135 46.3998 32.6531 49.4385 35.0921C52.3388 37.7502 57.8627 35.8071 57.9895 31.7305C58.6411 28.0807 54.749 25.0074 51.3125 26.1663V26.1663Z" fill="#A6A6A6"/>
<path d="M51.3131 26.1663C54.7497 25.0074 58.6417 28.0806 57.9902 31.7305C57.8633 35.8071 52.3395 37.7502 49.4392 35.0921C46.4005 32.6531 47.4845 27.135 51.3131 26.1663V26.1663Z" fill="#CCCCCC"/>
<path d="M9.06494 38.6382C11.4924 36.1243 13.9891 33.6737 16.4685 31.2059C21.3696 30.9752 26.2707 31.3788 31.1718 31.0732L31.9906 31.252C26.8646 36.4241 21.6867 41.5501 16.5492 46.7164C14.0525 44.2255 11.527 41.7576 9.07647 39.2206L9.06494 38.6382Z" fill="#00BCF2"/>
<path d="M40.1149 42.0173C40.605 41.36 41.516 41.5618 42.1791 41.7809C42.4443 42.4382 42.6519 43.3781 41.9831 43.8797C37.745 48.112 33.5128 52.35 29.2748 56.5822C28.7674 57.2857 27.8506 57.0032 27.1644 56.7956C27.0145 56.1152 26.732 55.2157 27.4181 54.7198C31.6561 50.4876 35.8942 46.2611 40.1149 42.0173V42.0173Z" fill="#00BCF2"/>
<path d="M37.2846 67.4509C42.4509 62.3249 47.5596 57.1298 52.749 52.0269C53.2161 53.8835 52.7548 55.7978 52.7951 57.6775C52.7202 61.0218 53.2679 64.4872 52.5991 67.7508C50.1774 70.1263 47.8306 72.5827 45.3743 74.9179C44.544 75.1947 44.175 74.2029 43.6214 73.8108C41.5168 71.6832 39.3776 69.5901 37.2846 67.4509V67.4509Z" fill="#00BCF2"/>
<path d="M16.6703 46.8315C23.5088 53.647 30.3242 60.4854 37.1569 67.3066C33.5301 69.0134 29.5055 69.9302 25.7287 71.3486C25.5846 71.2448 25.2847 71.0315 25.1406 70.9277C24.2353 69.9994 23.3358 69.0595 22.4075 68.16C20.2222 65.9689 18.0311 63.7778 15.84 61.5925C14.929 60.6642 14.0064 59.7532 13.0666 58.8594C12.9801 58.6922 12.7956 58.3636 12.7091 58.2021C14.0353 54.4196 15.0385 50.4699 16.6703 46.8315Z" fill="#4A5459"/>
</svg>
