<svg width="230" height="117" viewBox="0 0 230 117" fill="none" xmlns="http://www.w3.org/2000/svg">
<path d="M103.667 28.9995L115.461 33.4654L129.547 25.3559L136.344 31.4424L154.199 24.1041L155.571 31.4287L176.074 25.3229L171.936 33.4253L193.797 28.9355L184.408 37.3067L206.255 34.715L192.206 42.8289L212.665 42.2982L194.838 49.6451L212.624 51.2087L192.139 57.327L206.135 60.8866L184.279 65.3917L193.605 70.7238L171.752 73.3327L175.822 80.1022L155.345 80.651L153.903 88.4325L136.089 86.8867L129.226 95.1912L115.193 91.6479L103.34 99.9538L93.9713 94.6357L77.8734 102.421L73.7565 95.6621L54.4249 102.438L55.8191 94.6627L34.4685 100.003L41.286 91.7004L19.258 95.2693L31.0705 86.9612L9.74908 88.5348L25.8144 80.7429L6.53932 80.2224L25.848 73.4363L9.83039 70.8543L31.1692 65.5004L19.4155 61.0192L41.4436 57.4339L34.6923 51.3351L56.0256 49.7437L54.701 42.4104L73.9991 42.9129L78.1843 34.8059L94.2346 37.3707L103.667 28.9995Z" fill="#2E2E2E"/>
<path d="M113.667 18.9995L125.461 23.4654L139.547 15.3559L146.344 21.4424L164.199 14.1041L165.571 21.4287L186.074 15.3229L181.936 23.4253L203.797 18.9355L194.408 27.3067L216.255 24.715L202.206 32.8289L222.665 32.2982L204.838 39.6451L222.624 41.2087L202.139 47.327L216.135 50.8866L194.279 55.3917L203.605 60.7238L181.752 63.3327L185.822 70.1022L165.345 70.651L163.903 78.4325L146.089 76.8867L139.226 85.1912L125.193 81.6479L113.34 89.9538L103.971 84.6357L87.8734 92.4209L83.7565 85.6621L64.4249 92.4375L65.8191 84.6627L44.4685 90.0027L51.286 81.7004L29.258 85.2693L41.0705 76.9612L19.7491 78.5348L35.8144 70.7429L16.5393 70.2224L35.848 63.4363L19.8304 60.8543L41.1692 55.5004L29.4155 51.0192L51.4436 47.4339L44.6923 41.3351L66.0256 39.7437L64.701 32.4104L83.9991 32.9129L88.1843 24.8059L104.235 27.3707L113.667 18.9995Z" fill="#F1B31C"/>
<path d="M79.0419 65.1087L71.7102 66.5933L70.9794 69.3319L67.0169 70.1343L71.2357 55.5897L75.1982 54.7873L84.7431 66.5448L80.7805 67.3472L79.0419 65.1087ZM72.4638 63.7704L77.2686 62.7974L73.8951 58.4389L72.4638 63.7704ZM92.445 50.9461C93.7339 50.6851 94.9529 50.5545 96.1021 50.5543C97.2563 50.5464 98.3309 50.6211 99.3259 50.7783L99.9771 53.9943C99.572 53.8638 99.1204 53.7493 98.6222 53.6509C98.1304 53.5512 97.6017 53.4823 97.036 53.444C96.4702 53.4058 95.8721 53.4041 95.2414 53.4388C94.6107 53.4735 93.9572 53.5593 93.2808 53.6963C92.4386 53.8668 91.717 54.076 91.1163 54.3239C90.5155 54.5718 90.0124 54.843 89.6071 55.1377C89.2018 55.4323 88.8834 55.7459 88.6518 56.0784C88.4189 56.4045 88.2505 56.7376 88.1466 57.0774C88.0428 57.4173 87.9912 57.7532 87.992 58.0852C87.9928 58.4172 88.0236 58.7331 88.0843 59.033C88.1373 59.2946 88.2203 59.5734 88.3334 59.8694C88.4528 60.164 88.6169 60.4496 88.8257 60.7262C89.0409 61.0015 89.3109 61.2523 89.6357 61.4788C89.9606 61.7053 90.3587 61.8838 90.8302 62.0141C91.308 62.1432 91.8636 62.2134 92.4969 62.2246C93.1289 62.2295 93.8629 62.1473 94.6988 61.978C95.12 61.8928 95.4843 61.8057 95.7918 61.7169C96.0993 61.628 96.3761 61.5354 96.6223 61.4391C96.8749 61.3414 97.1064 61.2381 97.3168 61.1291C97.5336 61.0187 97.7561 60.9039 97.9844 60.7846L97.6626 59.1958L93.6809 60.0021L93.0975 57.1211L100.63 55.5958L101.991 62.3149C101.551 62.57 101.051 62.824 100.491 63.0769C99.9363 63.3221 99.3553 63.5527 98.748 63.7686C98.1484 63.9897 97.5412 64.189 96.9262 64.3667C96.3112 64.5444 95.7261 64.6894 95.171 64.8018C94.3096 64.9763 93.4716 65.0862 92.6571 65.1315C91.8426 65.1769 91.0669 65.1513 90.33 65.0548C89.5981 64.9505 88.9107 64.7709 88.2679 64.5158C87.6314 64.2594 87.0605 63.9167 86.5552 63.4876C86.0562 63.0572 85.6285 62.5361 85.2721 61.924C84.9207 61.3044 84.6617 60.583 84.495 59.7598C84.3296 58.9431 84.2946 58.1796 84.39 57.4695C84.4853 56.7594 84.6855 56.1077 84.9905 55.5145C85.3019 54.9201 85.7072 54.3797 86.2066 53.8933C86.7123 53.4056 87.2858 52.9739 87.9271 52.5983C88.5736 52.215 89.2776 51.8864 90.0392 51.6127C90.8071 51.3376 91.6091 51.1154 92.445 50.9461ZM105.963 62.2479L103.3 49.0968L116.613 46.4008L117.181 49.2052L107.514 51.1628L107.954 53.3355L117.124 51.4787L117.692 54.2831L108.522 56.1399L109.042 58.705L118.843 56.7203L119.411 59.5248L105.963 62.2479ZM135.27 56.3132L124.568 49.0745L126.398 58.1099L122.847 58.8289L120.184 45.6779L124.041 44.8968L134.76 52.1719L132.923 43.0982L136.455 42.383L139.118 55.5341L135.27 56.3132ZM157.542 50.8666C157.122 51.151 156.694 51.417 156.259 51.6645C155.825 51.9119 155.369 52.1403 154.893 52.3495C154.419 52.5652 153.91 52.7579 153.367 52.9278C152.829 53.0963 152.245 53.2445 151.613 53.3725C150.273 53.6438 149.01 53.7503 147.822 53.6918C146.641 53.6321 145.584 53.3978 144.651 52.9889C143.723 52.5723 142.945 51.9792 142.317 51.2095C141.689 50.4335 141.257 49.468 141.023 48.313C140.79 47.1581 140.812 46.104 141.091 45.1509C141.368 44.1913 141.854 43.3423 142.548 42.604C143.247 41.8579 144.129 41.2276 145.194 40.7131C146.265 40.1972 147.471 39.8036 148.811 39.5323C149.442 39.4044 150.038 39.3136 150.599 39.2599C151.166 39.2049 151.709 39.1844 152.23 39.1985C152.75 39.2062 153.258 39.2394 153.755 39.2983C154.252 39.3571 154.75 39.4357 155.248 39.5341L155.895 42.7309C155.491 42.6067 155.069 42.4897 154.628 42.3796C154.186 42.2632 153.707 42.1776 153.191 42.1226C152.674 42.0613 152.115 42.0416 151.515 42.0634C150.914 42.0789 150.25 42.1603 149.522 42.3076C148.406 42.5337 147.5 42.8366 146.807 43.2162C146.119 43.5945 145.594 44.0197 145.232 44.4917C144.869 44.9637 144.649 45.4666 144.571 46.0005C144.491 46.528 144.506 47.0566 144.613 47.5862C144.684 47.9372 144.793 48.2772 144.939 48.6062C145.084 48.9289 145.277 49.2253 145.517 49.4954C145.757 49.7591 146.046 49.9895 146.385 50.1866C146.724 50.3837 147.126 50.5315 147.591 50.63C148.056 50.7284 148.583 50.7744 149.173 50.7679C149.768 50.7537 150.439 50.671 151.185 50.5198C151.913 50.3725 152.558 50.1954 153.12 49.9885C153.681 49.7752 154.189 49.5429 154.643 49.2916C155.097 49.0402 155.505 48.7781 155.869 48.5053C156.231 48.2261 156.573 47.9476 156.895 47.6697L157.542 50.8666ZM168.008 44.0942L169.095 49.4637L165.554 50.1809L164.467 44.8113L156.516 38.3206L160.498 37.5143L165.743 41.9623L168.825 35.8281L172.807 35.0219L168.008 44.0942Z" fill="#2E2E2E"/>
</svg>
