<svg width="149" height="153" viewBox="0 0 149 153" fill="none" xmlns="http://www.w3.org/2000/svg">
<path d="M105.292 36.1434L97.4562 58.7567C93.6647 69.6916 96.0347 81.8037 103.663 90.4539L119.665 108.584L97.2791 101.155C86.7111 97.6585 75.0331 99.9235 66.5082 107.168L47.3183 123.424L55.5609 98.9245C59.4368 87.4079 56.4945 74.7031 47.9721 66.1269L32.9236 50.9687L55.8893 58.7523C66.8623 62.4573 79.0157 59.9311 87.6601 52.0981L105.292 36.1434Z" fill="#2E2E2E"/>
<path d="M101.645 29.2879L93.8097 51.9012C90.0182 62.8362 92.3882 74.9483 100.016 83.5984L116.019 101.729L93.6326 94.2998C83.0646 90.8031 71.3867 93.068 62.8617 100.312L43.6718 116.568L51.9144 92.069C55.7903 80.5524 52.848 67.8476 44.3256 59.2714L29.2771 44.1132L52.2428 51.8968C63.2159 55.6018 75.3692 53.0757 84.0136 45.2426L101.645 29.2879Z" fill="#FFBBFF"/>
</svg>
