<svg width="109" height="110" viewBox="0 0 109 110" fill="none" xmlns="http://www.w3.org/2000/svg">
<path d="M53.6376 9.80177C54.2982 8.1003 56.7057 8.1003 57.3663 9.80177L62.386 22.73C62.8878 24.0222 64.52 24.4245 65.5648 23.5135L76.0176 14.3989C77.3933 13.1993 79.525 14.3182 79.3193 16.1317L77.7559 29.9119C77.5997 31.2893 78.858 32.4041 80.2065 32.0829L93.6977 28.87C95.4733 28.4471 96.8409 30.4284 95.8159 31.9387L88.0277 43.4139C87.2492 44.5609 87.8454 46.1327 89.1887 46.4751L102.628 49.8998C104.396 50.3505 104.687 52.7405 103.077 53.6014L90.8482 60.1428C89.6259 60.7967 89.4233 62.4655 90.4536 63.3929L100.762 72.6708C102.118 73.8918 101.265 76.1429 99.4394 76.1573L85.5714 76.2663C84.1852 76.2772 83.2302 77.6608 83.7115 78.9608L88.5272 91.9663C89.161 93.678 87.359 95.2744 85.7362 94.439L73.4059 88.0907C72.1735 87.4562 70.6849 88.2374 70.507 89.6122L68.7271 103.366C68.4929 105.176 66.1553 105.752 65.1067 104.258L57.1389 92.9071C56.3425 91.7725 54.6614 91.7725 53.865 92.9071L45.8972 104.258C44.8486 105.752 42.511 105.176 42.2768 103.366L40.4969 89.6122C40.319 88.2374 38.8304 87.4562 37.598 88.0907L25.2677 94.439C23.6449 95.2744 21.8429 93.678 22.4767 91.9663L27.2924 78.9608C27.7737 77.6608 26.8187 76.2772 25.4325 76.2663L11.5645 76.1573C9.73929 76.1429 8.88557 73.8918 10.2422 72.6708L20.5503 63.3929C21.5806 62.4655 21.378 60.7967 20.1557 60.1428L7.92677 53.6014C6.31733 52.7405 6.60753 50.3505 8.37623 49.8998L21.8152 46.4751C23.1585 46.1327 23.7547 44.5609 22.9762 43.4139L15.188 31.9387C14.163 30.4284 15.5306 28.4471 17.3062 28.87L30.7974 32.0829C32.1459 32.4041 33.4042 31.2893 33.248 29.9119L31.6846 16.1317C31.4789 14.3182 33.6106 13.1993 34.9863 14.3989L45.4391 23.5135C46.4839 24.4245 48.1161 24.0222 48.6179 22.73L53.6376 9.80177Z" fill="#2E2E2E"/>
<path d="M50.6376 4.80177C51.2982 3.1003 53.7057 3.1003 54.3663 4.80177L59.386 17.73C59.8878 19.0222 61.52 19.4245 62.5648 18.5135L73.0176 9.39889C74.3933 8.19932 76.525 9.31815 76.3193 11.1317L74.7559 24.9119C74.5997 26.2893 75.858 27.4041 77.2065 27.0829L90.6977 23.87C92.4733 23.4471 93.8409 25.4284 92.8159 26.9387L85.0277 38.4139C84.2492 39.5609 84.8454 41.1327 86.1887 41.4751L99.6277 44.8998C101.396 45.3505 101.687 47.7405 100.077 48.6014L87.8482 55.1428C86.6259 55.7967 86.4233 57.4655 87.4536 58.3929L97.7617 67.6708C99.1183 68.8918 98.2646 71.1429 96.4394 71.1573L82.5714 71.2663C81.1852 71.2772 80.2302 72.6608 80.7115 73.9608L85.5272 86.9663C86.161 88.678 84.359 90.2744 82.7362 89.439L70.4059 83.0907C69.1735 82.4562 67.6849 83.2374 67.507 84.6122L65.7271 98.366C65.4929 100.176 63.1553 100.752 62.1067 99.2584L54.1389 87.9071C53.3425 86.7725 51.6614 86.7725 50.865 87.9071L42.8972 99.2584C41.8486 100.752 39.511 100.176 39.2768 98.366L37.4969 84.6122C37.319 83.2374 35.8304 82.4562 34.598 83.0907L22.2677 89.439C20.6449 90.2744 18.8429 88.678 19.4767 86.9663L24.2924 73.9608C24.7737 72.6608 23.8187 71.2772 22.4325 71.2663L8.56446 71.1573C6.73929 71.1429 5.88557 68.8918 7.24221 67.6708L17.5503 58.3929C18.5806 57.4655 18.378 55.7967 17.1557 55.1428L4.92677 48.6014C3.31733 47.7405 3.60753 45.3505 5.37623 44.8998L18.8152 41.4751C20.1585 41.1327 20.7547 39.5609 19.9762 38.4139L12.188 26.9387C11.163 25.4284 12.5306 23.4471 14.3062 23.87L27.7974 27.0829C29.1459 27.4041 30.4042 26.2893 30.248 24.9119L28.6846 11.1317C28.4789 9.31815 30.6106 8.19932 31.9863 9.39889L42.4391 18.5135C43.4839 19.4245 45.1161 19.0222 45.6179 17.73L50.6376 4.80177Z" fill="#90D7CE"/>
</svg>
