<svg width="136" height="137" viewBox="0 0 136 137" fill="none" xmlns="http://www.w3.org/2000/svg">
<path d="M78.8872 110.099C101.831 103.952 115.447 80.3684 109.299 57.4248C103.151 34.4811 79.5679 20.8653 56.6242 27.0131C33.6806 33.1608 20.0648 56.744 26.2125 79.6877C32.3602 102.631 55.9435 116.247 78.8872 110.099Z" fill="#92D3F5"/>
<path d="M78.8872 110.099C101.831 103.952 115.447 80.3684 109.299 57.4248C103.151 34.4811 79.5679 20.8653 56.6242 27.0131C33.6806 33.1608 20.0648 56.744 26.2125 79.6877C32.3602 102.631 55.9435 116.247 78.8872 110.099Z" stroke="#2E2E2E" stroke-width="3" stroke-miterlimit="10" stroke-linecap="round" stroke-linejoin="round"/>
<path d="M56.6246 27.0132L78.8875 110.1C66.1865 113.503 50.9066 97.6622 44.7589 74.7185C38.6112 51.7748 43.9236 30.4164 56.6246 27.0132ZM56.6246 27.0132C69.3255 23.61 84.6054 39.4507 90.7531 62.3944C96.9009 85.3381 91.5884 106.696 78.8875 110.1" stroke="#2E2E2E" stroke-width="3" stroke-miterlimit="10" stroke-linecap="round" stroke-linejoin="round"/>
<path d="M109.299 57.4248L26.2124 79.6877" stroke="#2E2E2E" stroke-width="3" stroke-miterlimit="10" stroke-linecap="round" stroke-linejoin="round"/>
<path d="M97.7984 38.2432L26.5815 57.3257" stroke="#2E2E2E" stroke-width="3" stroke-miterlimit="10" stroke-linecap="round" stroke-linejoin="round"/>
<path d="M108.93 79.7866L37.7129 98.8691" stroke="#2E2E2E" stroke-width="3" stroke-miterlimit="10" stroke-linecap="round" stroke-linejoin="round"/>
</svg>
