<svg width="48" height="48" viewBox="0 0 48 48" fill="none" xmlns="http://www.w3.org/2000/svg">
<path d="M24.1997 35C30.2748 35 35.1997 30.0751 35.1997 24C35.1997 17.9249 30.2748 13 24.1997 13C18.1246 13 13.1997 17.9249 13.1997 24C13.1997 30.0751 18.1246 35 24.1997 35Z" stroke="#2E2E2E" stroke-width="3" stroke-linecap="round" stroke-linejoin="round"/>
<path d="M36.4049 10.2171C36.96 10.7284 37.4859 11.2543 37.9826 11.7948L43.9646 12.6494C44.9393 14.3421 45.6906 16.154 46.1997 18.0398L42.5623 22.8825C42.5623 22.8825 42.628 24.3725 42.5623 25.1175L46.1997 29.9602C45.693 31.8468 44.9416 33.659 43.9646 35.3506L37.9826 36.2052C37.9826 36.2052 36.9527 37.2789 36.4049 37.7829L35.5503 43.7649C33.8576 44.7396 32.0457 45.4909 30.1599 46L25.3172 42.3626C24.5737 42.4283 23.8257 42.4283 23.0822 42.3626L18.2395 46C16.3529 45.4933 14.5407 44.7419 12.8491 43.7649L11.9945 37.7829C11.454 37.2716 10.9281 36.7457 10.4168 36.2052L4.43477 35.3506C3.46007 33.6579 2.70879 31.846 2.19971 29.9602L5.83716 25.1175C5.83716 25.1175 5.77142 23.6275 5.83716 22.8825L2.19971 18.0398C2.70643 16.1532 3.45783 14.341 4.43477 12.6494L10.4168 11.7948C10.9281 11.2543 11.454 10.7284 11.9945 10.2171L12.8491 4.23506C14.5419 3.26036 16.3537 2.50909 18.2395 2L23.0822 5.63745C23.8257 5.5717 24.5737 5.5717 25.3172 5.63745L30.1599 2C32.0465 2.50673 33.8587 3.25812 35.5503 4.23506L36.4049 10.2171Z" stroke="#2E2E2E" stroke-width="3" stroke-linecap="round" stroke-linejoin="round"/>
</svg>
