<svg width="48" height="48" viewBox="0 0 48 48" fill="none" xmlns="http://www.w3.org/2000/svg">
<path d="M43.2002 13L5.2002 35" stroke="#2E2E2E" stroke-width="3" stroke-linecap="round" stroke-linejoin="round"/>
<path d="M2.57542 28C2.31963 26.6581 2.19406 25.2951 2.20043 23.9297C2.19746 19.3381 3.6388 14.8588 6.32554 11.1099C9.01227 7.36098 12.8119 4.52734 17.2002 3V19.6512L2.57542 28Z" stroke="#2E2E2E" stroke-width="3" stroke-linecap="round" stroke-linejoin="round"/>
<path d="M24.1879 2C28.0455 2.00044 31.8352 3.0138 35.1775 4.93859C38.5197 6.86338 41.2973 9.63202 43.2318 12.9672C45.1663 16.3024 46.1899 20.0869 46.2001 23.9419C46.2103 27.7968 45.2067 31.5868 43.2898 34.9321C41.373 38.2774 38.6101 41.0607 35.2781 43.0031C31.946 44.9455 28.1617 45.9789 24.3042 45.9997C20.4467 46.0205 16.6515 45.028 13.2986 43.1216C9.94581 41.2153 7.15308 38.462 5.2002 35.1375" stroke="#2E2E2E" stroke-width="3" stroke-linecap="round" stroke-linejoin="round"/>
</svg>
