<svg width="44" height="30" viewBox="0 0 44 30" fill="none" xmlns="http://www.w3.org/2000/svg">
<path d="M2.2002 26.4706V22.0927C2.2002 11.1001 11.0848 2.03838 22.1233 2.00015C24.7562 1.99008 27.3652 2.49692 29.8006 3.49159C32.236 4.48626 34.4498 5.94918 36.3152 7.79642C38.1805 9.64366 39.6606 11.8389 40.6705 14.2561C41.6804 16.6733 42.2002 19.265 42.2002 21.8824V26.4706C42.2002 26.8762 42.0381 27.2652 41.7496 27.552C41.4611 27.8389 41.0698 28 40.6617 28H3.73866C3.33063 28 2.93932 27.8389 2.6508 27.552C2.36228 27.2652 2.2002 26.8762 2.2002 26.4706Z" stroke="#2E2E2E" stroke-width="3" stroke-linecap="round" stroke-linejoin="round"/>
<path d="M22.2002 2V8" stroke="#2E2E2E" stroke-width="3" stroke-linecap="round" stroke-linejoin="round"/>
<path d="M3.2002 17L10.2002 18" stroke="#2E2E2E" stroke-width="3" stroke-linecap="round" stroke-linejoin="round"/>
<path d="M41.2002 17L34.2002 18" stroke="#2E2E2E" stroke-width="3" stroke-linecap="round" stroke-linejoin="round"/>
<path d="M18.2002 28L31.2002 11" stroke="#2E2E2E" stroke-width="3" stroke-linecap="round" stroke-linejoin="round"/>
</svg>
