<svg width="48" height="30" viewBox="0 0 48 30" fill="none" xmlns="http://www.w3.org/2000/svg">
<path d="M3.77162 2H28.9145C30.5816 2 32.1804 2.64454 33.3592 3.79182C34.538 4.9391 35.2002 6.49515 35.2002 8.11765V26.4706C35.2002 26.8762 35.0346 27.2652 34.7399 27.552C34.4452 27.8389 34.0455 28 33.6288 28H8.48591C6.81883 28 5.22004 27.3555 4.04124 26.2082C2.86244 25.0609 2.2002 23.5049 2.2002 21.8824V3.52941C2.2002 3.12379 2.36576 2.73477 2.66046 2.44795C2.95516 2.16113 3.35486 2 3.77162 2V2Z" stroke="#2E2E2E" stroke-width="3" stroke-linecap="round" stroke-linejoin="round"/>
<path d="M35.2002 11.6667L46.2002 5V25L35.2002 18.3333" stroke="#2E2E2E" stroke-width="3" stroke-linecap="round" stroke-linejoin="round"/>
</svg>
