<svg width="133" height="90" viewBox="0 0 133 90" fill="none" xmlns="http://www.w3.org/2000/svg">
<path d="M56.8278 29.8922C56.15 21.7888 64.5788 16.3937 71.6302 20.5177C73.2322 21.4609 74.3046 22.9215 75.2127 24.4944C79.7132 32.259 84.1608 40.054 88.7086 47.8089C91.1389 51.9573 95.7266 52.5162 99.1517 49.1993C101.169 47.2593 101.485 44.3273 99.888 41.5307C95.389 33.6772 90.8712 25.8521 86.3194 18.0291C85.1996 16.1201 84.6737 14.0798 84.8174 11.9172C85.0998 7.73584 88.1673 4.04382 92.1768 3.17405C95.8554 2.37202 100.404 3.53497 102.738 7.66866C107.159 15.479 111.699 23.2207 116.181 31.0137C116.791 32.0711 117.466 33.0564 118.446 33.7771C121.13 35.7699 124.164 35.622 126.68 33.447C129.007 31.4337 129.573 28.1106 127.946 25.2611C123.721 17.8834 119.476 10.5001 115.173 3.1682C114.404 1.86725 114.761 1.32612 115.944 0.749126C116.781 0.336482 117.3 0.442077 117.752 1.25601C122.269 9.17005 126.957 16.9849 131.275 25.0134C133.63 29.3988 131.389 34.8875 126.765 37.3805C122.433 39.7057 116.718 38.1409 114.091 33.6829C109.387 25.7185 104.797 17.7064 100.199 9.68102C98.8459 7.30737 96.7805 6.05005 94.1517 6.22836C91.345 6.40366 89.3034 7.93484 88.3769 10.7257C87.7678 12.5401 88.046 14.2124 88.9999 15.8647C93.5136 23.6216 97.9744 31.409 102.483 39.1868C104.785 43.1446 104.876 47.0573 102.125 50.7782C99.5962 54.2122 95.9542 55.1694 91.971 54.3144C89.4564 53.7746 87.539 52.1324 86.2146 49.7775C83.0984 44.2275 79.8632 38.7461 76.6809 33.2342C75.2768 30.8021 73.8914 28.3415 72.4608 25.9246C70.4827 22.5901 66.4166 21.3777 63.3276 23.2316C60.1518 25.118 59.2027 29.2436 61.1101 32.4251C65.7468 40.1815 70.1136 48.1113 74.7316 55.8962C78.97 63.0542 73.5603 70.9007 66.2148 70.8766C64.7683 71.2712 63.5036 70.8206 62.3318 69.9814C59.9252 68.6215 58.4296 66.4889 57.0844 64.1285C53.0122 56.8921 48.6945 49.7799 44.6884 42.5053C42.6635 38.8455 38.8108 37.545 35.4112 39.3491C31.9908 41.1477 31.1871 45.1894 33.4384 49.0887C37.8132 56.6966 42.1881 64.3046 46.6026 71.8897C48.5654 75.1978 48.9707 78.6471 46.8672 81.9941C42.6713 88.6464 33.7688 88.4285 29.7837 81.6177C25.1749 73.7571 20.6718 65.8354 16.0894 57.9596C14.4812 55.2046 12.2029 54.1584 9.46444 54.7877C4.81017 55.8535 2.77971 60.3038 5.15717 64.4828C9.3148 71.7756 13.4912 79.0399 17.7526 86.2375C18.5823 87.6442 18.4244 88.317 16.9943 88.9841C16.2159 89.3454 15.8294 89.2865 15.4021 88.5463C10.7866 80.4604 6.07854 72.428 1.54234 64.2963C-0.096918 61.3654 1.4537 55.8703 4.17442 53.806C9.68194 49.6393 15.9936 50.8948 19.4486 56.8485C23.8366 64.4488 28.3701 71.9652 32.5599 79.68C34.7359 83.6933 39.0552 84.3366 41.806 82.6603C45.1044 80.6503 45.872 77.0347 43.7256 73.2864C39.2515 65.5066 34.7378 57.7497 30.277 49.9622C28.4281 46.7294 28.3528 43.4243 30.2067 40.1334C32.9057 35.3147 39.4503 33.6158 44.3841 37.0942C45.7949 38.0421 46.821 39.3002 47.636 40.8035C49.4264 44.0877 51.4624 47.2478 53.1999 50.5625C55.5825 55.0557 58.6428 59.1047 61.2502 63.4682C63.6001 67.4163 67.6233 67.9133 70.6789 64.9331C72.0417 63.6 72.4586 62.0022 72.1229 60.1692C71.9289 59.1005 71.4475 58.1447 70.9794 57.1813C67.1033 49.3382 62.5907 41.8274 58.2255 34.2667C57.4242 32.8788 56.9351 31.4517 56.8278 29.8922Z" fill="#2E2E2E"/>
</svg>
