<svg width="40" height="34" viewBox="0 0 40 34" fill="none" xmlns="http://www.w3.org/2000/svg">
<path d="M30.415 8H3.68495C2.86481 8 2.19995 8.67997 2.19995 9.51875V30.7812C2.19995 31.62 2.86481 32.3 3.68495 32.3H30.415C31.2351 32.3 31.9 31.62 31.9 30.7812V9.51875C31.9 8.67997 31.2351 8 30.415 8Z" stroke="#2E2E2E" stroke-width="3" stroke-linecap="round" stroke-linejoin="round"/>
<path d="M8.5 1.7002H36.715C37.1088 1.7002 37.4866 1.86021 37.7651 2.14503C38.0435 2.42985 38.2 2.81615 38.2 3.21895V26.0002" stroke="#2E2E2E" stroke-width="3" stroke-linecap="round" stroke-linejoin="round"/>
<path d="M17.2 12V15" stroke="#2E2E2E" stroke-width="2" stroke-linecap="round" stroke-linejoin="round"/>
<path d="M17.2 25V28" stroke="#2E2E2E" stroke-width="2" stroke-linecap="round" stroke-linejoin="round"/>
<path d="M14.2 25H18.7C19.363 25 19.9989 24.7366 20.4677 24.2678C20.9366 23.7989 21.2 23.163 21.2 22.5C21.2 21.837 20.9366 21.2011 20.4677 20.7322C19.9989 20.2634 19.363 20 18.7 20H15.7C15.0369 20 14.401 19.7366 13.9322 19.2678C13.4633 18.7989 13.2 18.163 13.2 17.5C13.2 16.837 13.4633 16.2011 13.9322 15.7322C14.401 15.2634 15.0369 15 15.7 15H20.2" stroke="#2E2E2E" stroke-width="2" stroke-linecap="round" stroke-linejoin="round"/>
</svg>
