<svg width="122" height="122" viewBox="0 0 122 122" fill="none" xmlns="http://www.w3.org/2000/svg">
<g clip-path="url(#clip0_180_1228)">
<path d="M58.6777 33.7909C64.6167 26.636 70.016 29.8555 70.016 29.8555C70.7696 30.2246 71.3465 30.8769 71.6208 31.67C71.895 32.4631 71.8442 33.3325 71.4796 34.0883L62.3842 52.7988C62.0151 53.5525 61.3628 54.1295 60.5697 54.4037C59.7766 54.678 58.9072 54.6272 58.1514 54.2625L52.1072 51.3243C51.3535 50.9553 50.7765 50.3029 50.5022 49.5099C50.228 48.7168 50.2787 47.8473 50.6434 47.0915L52.1325 44.0284L57.3969 46.5881L62.7005 35.6779L58.6777 33.7909Z" fill="#FCEA2B"/>
<path d="M69.2653 39.0242L62.7802 52.3654C62.4111 53.119 61.7588 53.696 60.9657 53.9702C60.1726 54.2444 59.3033 54.1936 58.5475 53.829L52.5036 50.8904C51.75 50.5214 51.173 49.869 50.8988 49.076C50.6245 48.2829 50.6753 47.4135 51.04 46.6577L52.5289 43.5946L57.7933 46.1536L59.9988 41.6154" fill="#F4AA41"/>
<path d="M37.2544 87.0144L27.8877 85.8972L33.6994 107.587L42.1593 105.32L37.2544 87.0144Z" fill="#EA5A47"/>
<path d="M31.9722 87.8579L36.9564 106.459L41.187 105.326L36.6523 88.4018L31.9722 87.8579Z" fill="#D22F27"/>
<path d="M58.396 79.5745L50.5352 84.0775L55.2848 101.803L63.7448 99.5363L58.396 79.5745Z" fill="#EA5A47"/>
<path d="M54.6361 82.466L59.6203 101.067L63.851 99.9338L58.3957 79.5744L54.6361 82.466Z" fill="#D22F27"/>
<path d="M77.44 56.9214L71.2497 67.6588L78.7311 95.5799L87.1911 93.3131L77.44 56.9214Z" fill="#EA5A47"/>
<path d="M73.7389 63.3863L82.2134 95.0137L86.4441 93.8801L77.1686 59.2636L73.7389 63.3863Z" fill="#D22F27"/>
<path d="M90.5264 18.7495L85.7762 34.8614L100.469 89.6959L108.929 87.4291L90.5264 18.7495Z" fill="#EA5A47"/>
<path d="M88.4099 27.7681L104.51 87.8556L108.74 86.7223L91.117 20.9539L88.4099 27.7681Z" fill="#D22F27"/>
<path d="M85.2549 12.0914C85.2549 12.0914 70.9423 95.119 25.1019 79.1366" stroke="black" stroke-width="2" stroke-miterlimit="10" stroke-linecap="round"/>
<path d="M76.6011 57.1462L70.4108 67.8836L77.8922 95.8048L86.3522 93.538L76.6011 57.1462Z" stroke="black" stroke-width="2" stroke-linecap="round" stroke-linejoin="round"/>
<path d="M58.3955 79.5745L50.5347 84.0775L55.2843 101.803L63.7443 99.5362L58.3955 79.5745Z" stroke="black" stroke-width="2" stroke-linecap="round" stroke-linejoin="round"/>
<path d="M36.3457 87.258L26.979 86.1409L32.7907 107.83L41.2506 105.563L36.3457 87.258Z" stroke="black" stroke-width="2" stroke-linecap="round" stroke-linejoin="round"/>
<path d="M59.1685 33.5988C65.1073 26.4433 70.5068 29.6634 70.5068 29.6634C71.2604 30.0325 71.8373 30.6848 72.1116 31.4779C72.3858 32.271 72.335 33.1404 71.9704 33.8962L62.8748 52.606C62.5057 53.3597 61.8534 53.9366 61.0603 54.2109C60.2672 54.4852 59.3978 54.4344 58.642 54.0698L52.5978 51.1316C51.8441 50.7625 51.2671 50.1102 50.9929 49.3171C50.7186 48.524 50.7694 47.6546 51.1341 46.8988L52.6235 43.8355L57.8878 46.3947L63.1914 35.4845L59.1685 33.5988Z" stroke="black" stroke-width="2" stroke-linecap="round" stroke-linejoin="round"/>
<path d="M72.756 38.2674C73.8867 37.9644 74.5578 36.8022 74.2548 35.6714C73.9518 34.5406 72.7895 33.8696 71.6588 34.1726C70.528 34.4756 69.8569 35.6379 70.1599 36.7686C70.4629 37.8994 71.6252 38.5704 72.756 38.2674Z" fill="black"/>
<path d="M71.3087 41.8009C72.4395 41.4979 73.1105 40.3356 72.8075 39.2049C72.5045 38.0741 71.3423 37.403 70.2115 37.706C69.0807 38.009 68.4097 39.1713 68.7127 40.3021C69.0157 41.4328 70.1779 42.1039 71.3087 41.8009Z" fill="black"/>
<path d="M64.9493 54.3275C66.0801 54.0245 66.7511 52.8622 66.4482 51.7315C66.1452 50.6007 64.9829 49.9297 63.8521 50.2326C62.7214 50.5356 62.0503 51.6979 62.3533 52.8287C62.6563 53.9594 63.8186 54.6305 64.9493 54.3275Z" fill="black"/>
<path d="M67.1232 50.8734C68.2539 50.5704 68.925 49.4081 68.622 48.2774C68.319 47.1466 67.1567 46.4756 66.0259 46.7785C64.8952 47.0815 64.2241 48.2438 64.5271 49.3746C64.8301 50.5053 65.9924 51.1764 67.1232 50.8734Z" fill="black"/>
<path d="M90.5264 18.7495L85.7762 34.8614L100.469 89.6959L108.929 87.4291L90.5264 18.7495Z" stroke="black" stroke-width="2" stroke-linecap="round" stroke-linejoin="round"/>
</g>
<defs>
<clipPath id="clip0_180_1228">
<rect width="98.455" height="98.455" fill="white" transform="translate(0.696777 25.9785) rotate(-15)"/>
</clipPath>
</defs>
</svg>
