<svg width="42" height="54" viewBox="0 0 42 54" fill="none" xmlns="http://www.w3.org/2000/svg">
<path d="M11.2002 52H31.2002" stroke="#2E2E2E" stroke-width="3" stroke-linecap="round" stroke-linejoin="round"/>
<path d="M9.49179 36.126C7.22978 34.359 5.39774 32.098 4.13445 29.5142C2.87117 26.9305 2.20978 24.0918 2.2004 21.2131C2.1529 10.8576 10.4418 2.24397 20.7495 2.00536C24.7388 1.91036 28.6566 3.07958 31.9473 5.3472C35.238 7.61482 37.7345 10.8657 39.0828 14.6389C40.431 18.412 40.5626 22.5158 39.4589 26.3683C38.3552 30.2208 36.0721 33.6264 32.9335 36.1021C32.2402 36.6405 31.6786 37.3311 31.2917 38.121C30.9047 38.9108 30.7027 39.7792 30.701 40.6595V42.0912C30.701 42.5974 30.5008 43.0829 30.1445 43.4409C29.7881 43.7989 29.3049 44 28.8009 44H13.6006C13.0967 44 12.6134 43.7989 12.2571 43.4409C11.9008 43.0829 11.7006 42.5974 11.7006 42.0912V40.6595C11.6946 39.7858 11.493 38.9246 11.1106 38.1398C10.7283 37.355 10.175 36.6667 9.49179 36.126V36.126Z" stroke="#2E2E2E" stroke-width="3" stroke-linecap="round" stroke-linejoin="round"/>
<path d="M23.2002 11C25.6945 11.3391 27.9961 12.2909 29.7873 13.7238C31.5785 15.1568 32.771 17.0003 33.2002 19" stroke="#2E2E2E" stroke-width="3" stroke-linecap="round" stroke-linejoin="round"/>
</svg>
