<svg width="150" height="150" viewBox="0 0 150 150" fill="none" xmlns="http://www.w3.org/2000/svg">
<g clip-path="url(#clip0_180_1251)">
<path d="M109.568 63.9135C113.195 61.8196 114.437 57.1821 112.344 53.5554C110.25 49.9287 105.612 48.6861 101.985 50.78C98.3587 52.8739 97.1161 57.5113 99.21 61.1381C101.304 64.7648 105.941 66.0074 109.568 63.9135Z" fill="#3F3F3F" stroke="#3F3F3F" stroke-width="2" stroke-miterlimit="10"/>
<path d="M84.6565 25.7535L73.1913 55.7436L35.4822 77.515C33.3127 78.7763 32.5688 81.5527 33.817 83.7298L46.474 105.652C47.7353 107.822 50.5117 108.566 52.6888 107.318L90.3979 85.5463L121.939 90.3252L84.6565 25.7535Z" fill="#D0CFCE"/>
<path d="M43.3286 72.6175L33.7637 78.9047L33.2048 82.574L46.9203 106.495L51.5802 108.108L60.5027 102.861L43.3286 72.6175Z" fill="#9B9B9A"/>
<path d="M72.8504 96.2609L82.1721 112.407C83.3162 114.388 82.7759 116.842 80.9652 117.887L74.4084 121.673C72.5979 122.718 70.2026 121.959 69.0585 119.978L59.7368 103.832" fill="#9B9B9A"/>
<path d="M84.6565 25.754L73.1913 55.7441L35.4822 77.5155C33.3127 78.7768 32.5688 81.5532 33.817 83.7303L46.474 105.653C47.7353 107.822 50.5117 108.566 52.6888 107.318L90.3979 85.5468L121.939 90.3257L84.6565 25.754Z" stroke="black" stroke-width="2" stroke-linecap="round" stroke-linejoin="round"/>
<path d="M44.0356 73.6489L60.1488 101.558" stroke="black" stroke-width="2" stroke-linecap="round" stroke-linejoin="round"/>
<path d="M74.342 101.876L81.1664 113.696C82.004 115.147 81.507 117.002 80.0563 117.84L74.8028 120.873C73.3522 121.71 71.4972 121.213 70.6596 119.763L63.8352 107.942" stroke="black" stroke-width="2" stroke-linecap="round" stroke-linejoin="round"/>
<path d="M105.316 49.7807C108.101 49.6041 110.879 50.9776 112.368 53.5581C113.859 56.14 113.659 59.2341 112.111 61.5581" stroke="black" stroke-width="2" stroke-linecap="round" stroke-linejoin="round"/>
</g>
<defs>
<clipPath id="clip0_180_1251">
<rect width="109.19" height="109.19" fill="white" transform="translate(0.199951 54.5952) rotate(-30)"/>
</clipPath>
</defs>
</svg>
