<svg width="49" height="48" viewBox="0 0 49 48" fill="none" xmlns="http://www.w3.org/2000/svg">
<path d="M42.2 33.2283V14.7717C42.1985 14.5051 42.1267 14.2436 41.9917 14.0135C41.8568 13.7835 41.6634 13.593 41.4312 13.4614L24.9312 4.19561C24.7089 4.06746 24.4567 4 24.2 4C23.9432 4 23.691 4.06746 23.4687 4.19561L6.9687 13.4614C6.73648 13.593 6.54314 13.7835 6.40817 14.0135C6.27321 14.2436 6.20139 14.5051 6.19995 14.7717V33.2283C6.20139 33.4949 6.27321 33.7564 6.40817 33.9865C6.54314 34.2165 6.73648 34.407 6.9687 34.5386L23.4687 43.8044C23.691 43.9325 23.9432 44 24.2 44C24.4567 44 24.7089 43.9325 24.9312 43.8044L41.4312 34.5386C41.6634 34.407 41.8568 34.2165 41.9917 33.9865C42.1267 33.7564 42.1985 33.4949 42.2 33.2283V33.2283Z" stroke="#2E2E2E" stroke-width="3" stroke-linecap="round" stroke-linejoin="round"/>
<path d="M42.2 14L24.3707 24L6.19995 14" stroke="#2E2E2E" stroke-width="3" stroke-linecap="round" stroke-linejoin="round"/>
<path d="M24.2 24V44" stroke="#2E2E2E" stroke-width="3" stroke-linecap="round" stroke-linejoin="round"/>
</svg>
