<svg width="57" height="56" viewBox="0 0 57 56" fill="none" xmlns="http://www.w3.org/2000/svg">
<path d="M13.3588 42.8413C11.5012 40.9837 12.7329 37.0865 11.7838 34.8048C10.8348 32.5231 7.2002 30.524 7.2002 28C7.2002 25.476 10.7944 23.5577 11.7838 21.1952C12.7733 18.8327 11.5012 15.0163 13.3588 13.1587C15.2165 11.301 19.1137 12.5327 21.3954 11.5837C23.6771 10.6346 25.6762 7 28.2002 7C30.7242 7 32.6425 10.5942 35.005 11.5837C37.3675 12.5731 41.1838 11.301 43.0415 13.1587C44.8992 15.0163 43.6675 18.9135 44.6165 21.1952C45.5656 23.4769 49.2002 25.476 49.2002 28C49.2002 30.524 45.606 32.4423 44.6165 34.8048C43.6271 37.1673 44.8992 40.9837 43.0415 42.8413C41.1838 44.699 37.2867 43.4673 35.005 44.4163C32.7233 45.3654 30.7242 49 28.2002 49C25.6762 49 23.7579 45.4058 21.3954 44.4163C19.0329 43.4269 15.2165 44.699 13.3588 42.8413Z" stroke="#2E2E2E" stroke-width="3" stroke-linecap="round" stroke-linejoin="round"/>
<path d="M36.2002 23L25.5275 34L20.2002 28.5" stroke="#2E2E2E" stroke-width="3" stroke-linecap="round" stroke-linejoin="round"/>
</svg>
