<svg width="47" height="47" viewBox="0 0 47 47" fill="none" xmlns="http://www.w3.org/2000/svg">
<path d="M16.5333 36.6044C13.8388 44.0445 3.15552 44.0445 3.15552 44.0445C3.15552 44.0445 3.15552 34.1243 11.168 31.6223" stroke="#2E2E2E" stroke-width="3" stroke-linecap="round" stroke-linejoin="round"/>
<path d="M39.6068 17.9738L24.0472 33.5333L13.6665 23.1526L29.2261 7.59306C35.1154 1.7038 41.0046 1.77254 43.5253 2.13919C43.9143 2.19108 44.2754 2.36954 44.5528 2.64701C44.8303 2.92449 45.0088 3.28556 45.0606 3.67452C45.4273 6.19522 45.496 12.0845 39.6068 17.9738Z" stroke="#2E2E2E" stroke-width="3" stroke-linecap="round" stroke-linejoin="round"/>
<path d="M36.6 21.1111V35.8169C36.5934 36.2972 36.404 36.7554 36.0732 37.0917L28.9842 44.4673C28.7593 44.7003 28.4776 44.8656 28.1692 44.9456C27.8609 45.0256 27.5373 45.0172 27.2332 44.9214C26.929 44.8256 26.6556 44.6459 26.4422 44.4016C26.2288 44.1572 26.0833 43.8574 26.0213 43.534L24.1777 33.9957" stroke="#2E2E2E" stroke-width="3" stroke-linecap="round" stroke-linejoin="round"/>
<path d="M27.0444 10.6001H11.7504C11.2508 10.6072 10.7743 10.8111 10.4246 11.1674L2.75392 18.8017C2.51159 19.0439 2.33967 19.3472 2.2565 19.6793C2.17334 20.0114 2.18204 20.3599 2.28169 20.6874C2.38133 21.015 2.56818 21.3094 2.8223 21.5392C3.07642 21.7691 3.38827 21.9257 3.72459 21.9925L13.6444 23.9779" stroke="#2E2E2E" stroke-width="3" stroke-linecap="round" stroke-linejoin="round"/>
</svg>
