<svg width="107" height="74" viewBox="0 0 107 74" fill="none" xmlns="http://www.w3.org/2000/svg">
<path d="M93.5801 66.0134C91.3411 64.12 88.7344 64.7319 84.6756 65.916C80.3825 67.1365 75.0405 68.6756 70.2418 64.6211C65.4558 60.5603 66.0809 55.0367 66.6007 50.5971C67.0682 46.4038 67.2378 43.7359 65.0178 41.8489C62.7789 39.9556 60.1848 40.5612 56.1197 41.7326C51.8328 42.9658 46.4909 44.505 41.6859 40.4377C36.881 36.3705 37.525 30.8534 38.0227 26.4167C38.5029 22.2172 38.6884 19.5336 36.4557 17.6529C34.2262 15.7627 31.6101 16.3714 27.5512 17.5555C23.2675 18.7792 17.9066 20.3119 13.1206 16.2512C12.8093 15.9866 12.5139 15.7063 12.2375 15.4325L17.6291 12.1354C19.7265 13.4523 22.1972 12.8363 25.8947 11.7827C30.1878 10.5622 35.5298 9.02299 40.3285 13.0775C45.1177 17.1288 44.4894 22.6619 43.9918 27.0985C43.5115 31.2981 43.3325 33.9628 45.5587 35.8624C47.7914 37.7431 50.4014 37.1217 54.46 35.9692C58.7596 34.7298 64.0952 33.2096 68.8938 37.2641C73.683 41.3154 73.058 46.839 72.5603 51.2757C72.0801 55.4752 71.901 58.1399 74.1273 60.0395C76.3757 61.9361 78.9729 61.321 83.0318 60.1369C87.3249 58.9164 92.6764 57.3805 97.4656 61.4318L93.5801 66.0134Z" fill="#2E2E2E"/>
<path d="M90.5801 62.0134C88.3411 60.12 85.7344 60.7319 81.6756 61.916C77.3825 63.1365 72.0405 64.6756 67.2418 60.6211C62.4558 56.5603 63.0809 51.0367 63.6007 46.5971C64.0682 42.4038 64.2378 39.7359 62.0178 37.8489C59.7789 35.9556 57.1848 36.5612 53.1197 37.7326C48.8328 38.9658 43.4909 40.505 38.6859 36.4377C33.881 32.3705 34.525 26.8534 35.0227 22.4167C35.5029 18.2172 35.6884 15.5336 33.4557 13.6529C31.2262 11.7627 28.6101 12.3714 24.5512 13.5555C20.2675 14.7792 14.9066 16.3119 10.1206 12.2512C9.80932 11.9866 9.51393 11.7063 9.23747 11.4325L14.6291 8.13542C16.7265 9.4523 19.1972 8.83633 22.8947 7.78265C27.1878 6.56218 32.5298 5.02299 37.3285 9.07753C42.1177 13.1288 41.4894 18.6619 40.9918 23.0985C40.5115 27.2981 40.3325 29.9628 42.5587 31.8624C44.7914 33.7431 47.4014 33.1217 51.46 31.9692C55.7596 30.7298 61.0952 29.2096 65.8938 33.2641C70.683 37.3154 70.058 42.839 69.5603 47.2757C69.0801 51.4752 68.901 54.1399 71.1273 56.0395C73.3757 57.9361 75.9729 57.321 80.0318 56.1369C84.3249 54.9164 89.6764 53.3805 94.4656 57.4318L90.5801 62.0134Z" fill="#DDA1CC"/>
</svg>
