<svg width="124" height="113" viewBox="0 0 124 113" fill="none" xmlns="http://www.w3.org/2000/svg">
<path d="M71.0724 45.074C77.656 41.5874 85.2376 46.7379 84.3369 54.1504C84.1251 55.8393 83.2856 57.269 82.2919 58.6011C77.393 65.1915 72.4492 71.7483 67.5755 78.375C64.9676 81.9178 66.1636 85.9811 70.1986 87.667C72.5636 88.6647 75.1456 87.8729 76.9188 85.5193C81.8932 78.8981 86.8367 72.2713 91.7662 65.6166C92.9658 63.9851 94.4804 62.7977 96.3636 62.1466C99.9845 60.8753 104.205 62.1248 106.394 65.1859C108.405 67.9929 109.078 72.2413 106.447 75.6975C101.481 82.2377 96.6158 88.8532 91.6861 95.438C91.0181 96.3335 90.4341 97.2568 90.1836 98.3419C89.4815 101.32 90.7079 103.821 93.4519 105.153C95.9913 106.386 98.9932 105.663 100.8 103.265C105.474 97.0465 110.144 90.8087 114.751 84.5402C115.566 83.4236 116.151 83.5291 117.066 84.3162C117.718 84.8717 117.817 85.3468 117.297 86.0212C112.278 92.6789 107.405 99.4453 102.217 105.977C99.3828 109.543 93.9501 109.637 90.1731 106.645C86.643 103.837 85.884 98.4623 88.6812 94.6425C93.6743 87.8088 98.7489 81.0532 103.832 74.2864C105.338 72.2911 105.646 70.0989 104.541 67.9505C103.374 65.6513 101.344 64.4854 98.659 64.7127C96.911 64.8548 95.6049 65.6925 94.561 67.0917C89.6733 73.6905 84.7408 80.2557 79.8335 86.8573C77.3395 90.2238 74.0803 91.7127 69.9501 90.7398C66.1419 89.8503 64.0137 87.1302 63.2864 83.4689C62.8273 81.1575 63.5127 78.9508 65.0132 76.9862C68.5515 72.3603 71.9888 67.6589 75.471 62.9911C77.0075 60.9314 78.5748 58.8773 80.0889 56.8009C82.1763 53.9325 81.7196 50.0723 79.0377 48.1413C76.2969 46.1489 72.4807 46.839 70.4964 49.5926C65.6538 56.2947 60.5673 62.8322 55.6939 69.5288C51.2102 75.6797 42.6428 73.9579 39.9951 67.7663C39.1378 66.6912 39.0576 65.464 39.3381 64.1748C39.6083 61.6583 40.8596 59.6298 42.3572 57.6457C46.9672 51.6064 51.3836 45.4053 56.0498 39.4079C58.394 36.3827 58.089 32.6704 55.3361 30.46C52.5803 28.23 48.8876 29.0121 46.4241 32.3143C41.6113 38.7424 36.7985 45.1705 32.0194 51.6238C29.9012 54.4866 27.1571 56.081 23.5768 55.5183C16.4552 54.3873 13.4051 46.8152 17.6887 41.0028C22.6291 34.2866 27.6593 27.6373 32.6221 20.9378C34.3953 18.5843 34.4369 16.2806 32.924 14.2111C30.3172 10.6809 25.8461 10.5863 23.1932 14.0956C18.5639 20.2075 13.9878 26.3418 9.4594 32.5291C8.57711 33.7352 7.94242 33.8367 6.8729 32.882C6.2862 32.3572 6.19536 32.0107 6.67134 31.3726C11.7989 24.5695 16.8478 17.7077 22.0427 10.9548C23.9135 8.51728 29.1006 7.83934 31.8258 9.38446C37.3323 12.5166 38.5683 18.2823 34.8134 23.3391C30.0118 29.7756 25.3337 36.3042 20.3637 42.6151C17.7771 45.8951 18.8045 49.7629 21.2142 51.4734C24.1036 53.5243 27.4247 52.8656 29.7992 49.7061C34.7205 43.1325 39.6082 36.5338 44.5408 29.9685C46.5896 27.2456 49.3433 25.9894 52.7859 26.3622C57.8209 26.895 61.6275 31.7906 60.4925 37.199C60.2074 38.7286 59.5213 40.0462 58.5524 41.2748C56.4392 43.9671 54.5196 46.8213 52.3615 49.48C49.4461 53.1072 47.1505 57.1444 44.4259 60.9138C41.9572 64.3166 43.0003 67.8825 46.6177 69.3789C48.2345 70.0449 49.7304 69.8192 51.1508 68.8752C51.9797 68.3261 52.6091 67.576 53.2497 66.8343C58.4415 60.7412 63.1225 54.2321 67.8991 47.8292C68.7759 46.6539 69.7991 45.7271 71.0724 45.074Z" fill="white"/>
<path d="M71.0724 41.074C77.656 37.5874 85.2376 42.7379 84.3369 50.1504C84.1251 51.8393 83.2856 53.269 82.2919 54.6011C77.393 61.1915 72.4492 67.7483 67.5755 74.375C64.9676 77.9178 66.1636 81.9811 70.1986 83.667C72.5636 84.6647 75.1456 83.8729 76.9188 81.5193C81.8932 74.8981 86.8367 68.2713 91.7662 61.6166C92.9658 59.9851 94.4804 58.7977 96.3636 58.1466C99.9845 56.8753 104.205 58.1248 106.394 61.1859C108.405 63.9929 109.078 68.2413 106.447 71.6975C101.481 78.2377 96.6158 84.8532 91.6861 91.438C91.0181 92.3335 90.4341 93.2568 90.1836 94.3419C89.4815 97.3202 90.7079 99.8207 93.4519 101.153C95.9913 102.386 98.9932 101.663 100.8 99.2647C105.474 93.0465 110.144 86.8087 114.751 80.5402C115.566 79.4236 116.151 79.5291 117.066 80.3162C117.718 80.8717 117.817 81.3468 117.297 82.0212C112.278 88.6789 107.405 95.4453 102.217 101.977C99.3828 105.543 93.9501 105.637 90.1731 102.645C86.643 99.8373 85.884 94.4623 88.6812 90.6425C93.6743 83.8088 98.7489 77.0532 103.832 70.2864C105.338 68.2911 105.646 66.0989 104.541 63.9505C103.374 61.6513 101.344 60.4854 98.659 60.7127C96.911 60.8548 95.6049 61.6925 94.561 63.0917C89.6733 69.6905 84.7408 76.2557 79.8335 82.8573C77.3395 86.2238 74.0803 87.7127 69.9501 86.7398C66.1419 85.8503 64.0137 83.1302 63.2864 79.4689C62.8273 77.1575 63.5127 74.9508 65.0132 72.9862C68.5515 68.3603 71.9888 63.6589 75.471 58.9911C77.0075 56.9314 78.5748 54.8773 80.0889 52.8009C82.1763 49.9325 81.7196 46.0723 79.0377 44.1413C76.2969 42.1489 72.4807 42.839 70.4964 45.5926C65.6538 52.2947 60.5673 58.8322 55.6939 65.5288C51.2102 71.6797 42.6428 69.9579 39.9951 63.7663C39.1378 62.6912 39.0576 61.464 39.3381 60.1748C39.6083 57.6583 40.8596 55.6298 42.3572 53.6457C46.9672 47.6064 51.3836 41.4053 56.0498 35.4079C58.394 32.3827 58.089 28.6704 55.3361 26.46C52.5803 24.23 48.8876 25.0121 46.4241 28.3143C41.6113 34.7424 36.7985 41.1705 32.0194 47.6238C29.9012 50.4866 27.1571 52.081 23.5768 51.5183C16.4552 50.3873 13.4051 42.8152 17.6887 37.0028C22.6291 30.2866 27.6593 23.6373 32.6221 16.9378C34.3953 14.5843 34.4369 12.2806 32.924 10.2111C30.3172 6.68088 25.8461 6.58626 23.1932 10.0956C18.5639 16.2075 13.9878 22.3418 9.4594 28.5291C8.57711 29.7352 7.94242 29.8367 6.8729 28.882C6.2862 28.3572 6.19536 28.0107 6.67134 27.3726C11.7989 20.5695 16.8478 13.7077 22.0427 6.95482C23.9135 4.51728 29.1006 3.83934 31.8258 5.38446C37.3323 8.51656 38.5683 14.2823 34.8134 19.3391C30.0118 25.7756 25.3337 32.3042 20.3637 38.6151C17.7771 41.8951 18.8045 45.7629 21.2142 47.4734C24.1036 49.5243 27.4247 48.8656 29.7992 45.7061C34.7205 39.1325 39.6082 32.5338 44.5408 25.9685C46.5896 23.2456 49.3433 21.9894 52.7859 22.3622C57.8209 22.895 61.6275 27.7906 60.4925 33.199C60.2074 34.7286 59.5213 36.0462 58.5524 37.2748C56.4392 39.9671 54.5196 42.8213 52.3615 45.48C49.4461 49.1072 47.1505 53.1444 44.4259 56.9138C41.9572 60.3166 43.0003 63.8825 46.6177 65.3789C48.2345 66.0449 49.7304 65.8192 51.1508 64.8752C51.9797 64.3261 52.6091 63.576 53.2497 62.8343C58.4415 56.7412 63.1225 50.2321 67.8991 43.8292C68.7759 42.6539 69.7991 41.7271 71.0724 41.074Z" fill="#191919"/>
</svg>
